<?xml version="1.0" encoding="utf-8"?>
<!-- Generator: Adobe Illustrator 21.1.0, SVG Export Plug-In . SVG Version: 6.00 Build 0)  -->
<svg version="1.1" id="Layer_1" xmlns="http://www.w3.org/2000/svg" xmlns:xlink="http://www.w3.org/1999/xlink" x="0px" y="0px"
	 viewBox="0 0 216 144" style="enable-background:new 0 0 216 144;" xml:space="preserve">
<style type="text/css">
	.st0{fill:#FFFFFF;}
</style>
<g>
	<path class="st0" d="M11,92.7v40.4c0,0.5,0.2,0.9,0.5,1.2c0.3,0.3,0.7,0.5,1.2,0.5h3c0.5,0,0.9-0.2,1.2-0.5
		c0.3-0.3,0.5-0.7,0.5-1.2V98.7v0v-2C12.9,96.2,11,92.7,11,92.7z"/>
	<path class="st0" d="M39.1,111.1c-0.3-1.4-0.7-3-1.1-4.9c-0.4-1.9-0.8-3.9-1.2-5.9c-0.1-0.5-0.2-1.1-0.3-1.6h-9.8v35.1
		c0,0.3,0.1,0.5,0.2,0.7c0.2,0.2,0.4,0.3,0.7,0.3h2.7c0.9,0,1.6-0.3,2.1-0.8c0.5-0.5,0.7-1.2,0.7-2l-0.5-28.2c0.3,1.6,0.6,3.4,1,5.3
		c0.4,1.9,0.8,3.9,1.3,5.9c0.4,2,0.9,4,1.3,5.9c0.4,1.9,0.9,3.7,1.2,5.3c0.4,1.6,0.7,3,0.9,4.1c0.2,1.1,0.4,1.9,0.4,2.3
		c0.1,0.7,0.4,1.2,0.8,1.6c0.4,0.4,1.1,0.6,1.9,0.6h2.7c0.3,0,0.6-0.1,0.7-0.3c0.2-0.2,0.2-0.4,0.2-0.7V98.7h-6.1L39.1,111.1z"/>
	<path class="st0" d="M66.3,126.6c0,0.8-0.2,1.5-0.7,2.1c-0.4,0.5-1.1,0.8-2.1,0.8h-2.8V98.7h-6.4v35.1c0,0.3,0.1,0.5,0.2,0.7
		c0.2,0.2,0.4,0.3,0.7,0.3h8.2c2.9,0,5.1-0.7,6.8-2.2c1.6-1.5,2.4-3.5,2.4-6V98.7h-6.4V126.6z"/>
	<path class="st0" d="M93.9,127.4c0,0.9-0.2,1.5-0.7,2.1c-0.5,0.5-1.2,0.8-2.1,0.8c-1,0-1.7-0.3-2.1-0.8c-0.4-0.5-0.7-1.2-0.7-2.1
		V98.7H82v28.7c0,1.3,0.2,2.4,0.6,3.4c0.4,1,1.1,1.9,1.9,2.6c0.8,0.7,1.8,1.3,2.9,1.6c1.1,0.4,2.4,0.6,3.8,0.6
		c2.9,0,5.2-0.7,6.8-2.2c1.6-1.5,2.4-3.5,2.4-6V98.7h-6.4V127.4z"/>
	<path class="st0" d="M126.1,113.1c-0.6-1.7-1.2-3.2-1.9-4.5c-0.7-1.3-1.4-2.5-2.2-3.7c-0.7-1.1-1.5-2.3-2.2-3.4
		c-0.5-0.9-1-1.8-1.5-2.8h-7c0.1,0.1,0.1,0.3,0.2,0.4c0.6,1.6,1.2,2.9,1.9,4.1c0.7,1.1,1.4,2.3,2.2,3.3c0.7,1.1,1.5,2.2,2.2,3.3
		c0.7,1.2,1.4,2.5,1.9,4.1c0.6,1.6,1,3.5,1.4,5.6c0.3,2.2,0.5,4.8,0.5,7.8c0,0.9-0.2,1.5-0.7,2.1c-0.4,0.5-1.2,0.8-2.1,0.8
		c-0.9,0-1.6-0.3-2.1-0.8c-0.5-0.5-0.7-1.2-0.7-2.1v-9.9c0-0.8-0.2-1.5-0.7-2c-0.5-0.5-1.2-0.8-2.1-0.8h-2.7c-0.3,0-0.6,0.1-0.7,0.3
		c-0.2,0.2-0.2,0.4-0.2,0.7v11.7c0,2.5,0.8,4.6,2.4,6c1.6,1.5,3.9,2.2,6.8,2.2c1.4,0,2.6-0.2,3.7-0.6c1.1-0.4,2.1-0.9,2.9-1.6
		c0.8-0.7,1.4-1.6,1.9-2.6c0.4-1,0.6-2.1,0.6-3.4c0-3.2-0.2-5.9-0.5-8.2C127.2,116.8,126.7,114.8,126.1,113.1z"/>
	<path class="st0" d="M173.1,104.1c0,0.8-0.2,1.5-0.7,2.1c-0.4,0.5-1.2,0.8-2.1,0.8h-2.8v-8.3h-6.4v35.1c0,0.3,0.1,0.5,0.2,0.7
		c0.2,0.2,0.4,0.3,0.7,0.3h2.7c0.9,0,1.6-0.3,2.1-0.8c0.5-0.5,0.7-1.2,0.7-2v-19.7h2.8c1,0,1.7,0.3,2.1,0.8c0.4,0.5,0.6,1.2,0.6,2.1
		V132c0,0.8,0.2,1.5,0.7,2c0.5,0.5,1.2,0.8,2.1,0.8h2.7c0.3,0,0.6-0.1,0.7-0.3c0.2-0.2,0.2-0.4,0.2-0.7v-18.7c0-1.4-0.3-2.5-0.8-3.4
		c-0.6-0.9-1.3-1.6-2.3-2.1c1-0.5,1.8-1.3,2.3-2.1c0.6-0.9,0.8-2,0.8-3.4v-5.4h-6.4V104.1z"/>
	<path class="st0" d="M198.7,96l-0.7,2.5l-0.1,0.2v0l-1.9,6.9l-1.9-6.9h-5.4l4.1,13.5v21c0,0.5,0.2,0.9,0.5,1.2
		c0.3,0.3,0.7,0.5,1.2,0.5h3c0.5,0,0.9-0.2,1.2-0.5c0.3-0.3,0.5-0.7,0.5-1.2v-21l4.1-13.5l0,0l0-0.1l1.6-6.3
		C203.3,95.9,198.7,96,198.7,96z"/>
	<path class="st0" d="M28.3,81.5c0.9-0.8,1.6-1.8,2-3c0.4-1,0.6-2.2,0.6-3.4V52.3c0-0.3-0.1-0.6-0.3-0.8c-0.2-0.2-0.4-0.3-0.8-0.3
		h-3c-1,0-1.7,0.3-2.2,0.9c-0.5,0.6-0.7,1.3-0.7,2.2v20.6c0,0,0,0.1,0,0.1c0,0.9-0.3,1.6-0.7,2.1c-0.5,0.6-1.3,0.9-2.3,0.9
		c-1,0-1.8-0.3-2.3-0.9c-0.5-0.5-0.7-1.3-0.7-2.1c0,0,0-0.1,0-0.1V18.4c0-0.9,0.3-1.7,0.8-2.3c0.5-0.6,1.3-0.9,2.3-0.9
		c1,0,1.8,0.3,2.3,0.9c0.5,0.6,0.7,1.3,0.7,2.3v21.3c0,0.9,0.3,1.6,0.8,2.2c0.5,0.6,1.3,0.9,2.3,0.9h2.9c0.3,0,0.6-0.1,0.8-0.3
		c0.2-0.2,0.3-0.5,0.3-0.8V18.4c0-1.4-0.2-2.6-0.7-3.7c-0.5-1.1-1.1-2-2-2.8c-0.9-0.8-1.9-1.4-3.2-1.8c-1.2-0.4-2.6-0.6-4.1-0.6
		c-3.2,0-5.6,0.8-7.4,2.4c-1.8,1.6-2.6,3.8-2.6,6.5v56.7c0,1.3,0.2,2.5,0.7,3.6c0.1,0.1,0.1,0.3,0.2,0.4c0.5,0.9,1.1,1.7,1.8,2.4
		c0.9,0.8,1.9,1.4,3.1,1.8c0.2,0.1,0.3,0.1,0.5,0.2c1.1,0.3,2.3,0.5,3.6,0.5c2.3,0,4.2-0.4,5.7-1.2C27.3,82.3,27.8,81.9,28.3,81.5z"
		/>
	<path class="st0" d="M56.4,80c0,0.9,0.2,1.6,0.8,2.2c0.5,0.6,1.3,0.9,2.3,0.9h2.9c0.3,0,0.6-0.1,0.8-0.3c0.2-0.2,0.3-0.5,0.3-0.8
		V11.4c0-0.3-0.1-0.6-0.3-0.8c-0.2-0.2-0.4-0.3-0.8-0.3h-2.9c-0.9,0-1.6,0.2-2.2,0.7c-0.6,0.5-0.8,1.1-0.8,1.9v30.1h-6V12.9
		c0-0.8-0.3-1.4-0.8-1.9c-0.6-0.5-1.3-0.7-2.2-0.7h-2.9c-0.3,0-0.6,0.1-0.8,0.3c-0.2,0.2-0.3,0.5-0.3,0.8V82c0,0.3,0.1,0.6,0.3,0.8
		c0.2,0.2,0.4,0.3,0.8,0.3h2.9c1,0,1.8-0.3,2.3-0.9c0.5-0.6,0.8-1.3,0.8-2.2V48.9h6V80z"/>
	<path class="st0" d="M87.4,70.5l0.3,4.5l0.2,4.4l0.1,1c0,0.5,0.2,0.9,0.4,1.2c0.1,0.2,0.3,0.4,0.5,0.6c0.6,0.5,1.3,0.8,2.2,0.8h2.5
		c0.1,0,0.2,0,0.3,0c0.3-0.1,0.6-0.2,0.8-0.4c0.2-0.3,0.3-0.6,0.3-0.9l-0.2-2.6l-0.4-4l-5.6-63.7c0-0.3-0.1-0.5-0.3-0.7
		c-0.2-0.2-0.4-0.3-0.7-0.3h-5.9c-0.3,0-0.6,0.1-0.7,0.3c-0.2,0.2-0.3,0.4-0.3,0.7l-5.6,63.7l-0.6,6.7c0,0.3,0.1,0.6,0.3,0.9
		c0.2,0.3,0.6,0.4,1.1,0.4h2.5c0.9,0,1.6-0.2,2.2-0.8c0.6-0.5,0.9-1.1,1-1.8l0.3-5.4l0.3-4.5H87.4z M84.7,25.8L87,64.7h-4.6
		L84.7,25.8z"/>
	<path class="st0" d="M112.1,83.3c1.2,0.4,2.6,0.6,4.1,0.6c0.2,0,0.4,0,0.5,0c1.3,0,2.5-0.2,3.5-0.5c1.3-0.4,2.4-1,3.3-1.8
		c0.6-0.6,1.2-1.2,1.6-2c0.7-1.3,1-2.7,1.1-4.4V18.4c0-1.4-0.2-2.6-0.7-3.7c-0.5-1.1-1.1-2-2-2.8c-0.9-0.8-1.9-1.4-3.2-1.8
		c-1.2-0.4-2.6-0.6-4.1-0.6c-3.2,0-5.6,0.8-7.4,2.4c-1.7,1.6-2.6,3.8-2.6,6.5v56.7c0,1.3,0.2,2.5,0.7,3.6c0.5,1.1,1.1,2,2,2.8
		c0.4,0.4,0.9,0.7,1.4,1C110.9,82.8,111.4,83.1,112.1,83.3z M113.2,18.4c0-0.9,0.2-1.7,0.8-2.3c0.5-0.6,1.3-0.9,2.3-0.9
		c1,0,1.8,0.3,2.3,0.9c0.5,0.6,0.7,1.3,0.7,2.3v56.6c0,0,0,0.1,0,0.1c0,0.9-0.3,1.6-0.7,2.1c-0.2,0.2-0.5,0.4-0.7,0.6
		c-0.6,0-1.3,0.1-1.8,0.3c-0.9-0.1-1.5-0.3-2-0.8c-0.5-0.5-0.7-1.3-0.7-2.1c0,0,0-0.1,0-0.1V18.4z"/>
	<path class="st0" d="M173.6,80.4v-69c0-0.3-0.1-0.6-0.3-0.8c-0.2-0.2-0.4-0.3-0.8-0.3h-2.9c-0.9,0-1.6,0.2-2.2,0.7
		c-0.5,0.5-0.8,1.1-0.8,1.9v70.3h4.1C170.7,83.3,173.6,83.3,173.6,80.4z"/>
	<path class="st0" d="M190.1,83.3c1.2,0.4,2.6,0.6,4.1,0.6c3.2,0,5.6-0.8,7.4-2.4c1.7-1.6,2.6-3.7,2.6-6.4V52.3
		c0-0.3-0.1-0.6-0.3-0.8c-0.2-0.2-0.4-0.3-0.8-0.3h-3c-1,0-1.7,0.3-2.2,0.9c-0.5,0.6-0.7,1.3-0.7,2.2v20.6c0,0,0,0.1,0,0.1
		c0,0.9-0.3,1.6-0.7,2.1c-0.5,0.6-1.3,0.9-2.3,0.9c-1,0-1.8-0.3-2.3-0.9c-0.5-0.5-0.7-1.3-0.7-2.1c0,0,0-0.1,0-0.1V18.4
		c0-0.9,0.3-1.7,0.8-2.3c0.5-0.6,1.3-0.9,2.3-0.9c1,0,1.8,0.3,2.3,0.9c0.5,0.6,0.7,1.3,0.7,2.3v21.3c0,0.9,0.2,1.6,0.8,2.2
		c0.5,0.6,1.3,0.9,2.3,0.9h2.9c0.3,0,0.6-0.1,0.8-0.3c0.2-0.2,0.3-0.5,0.3-0.8V18.4c0-1.4-0.2-2.6-0.7-3.7c-0.5-1.1-1.1-2-2-2.8
		c-0.9-0.8-1.9-1.4-3.2-1.8c-1.2-0.4-2.6-0.6-4.1-0.6c-3.2,0-5.6,0.8-7.4,2.4c-1.8,1.6-2.6,3.8-2.6,6.5v56.7c0,1.3,0.2,2.4,0.6,3.4
		c0,0.1,0,0.1,0.1,0.2c0.5,1.1,1.1,2,2,2.8c0.8,0.7,1.8,1.3,2.9,1.7C189.9,83.2,190,83.2,190.1,83.3z"/>
	<path class="st0" d="M152.7,10.3h-16.5c-0.3,0-0.6,0.1-0.8,0.3c-0.2,0.2-0.3,0.4-0.3,0.8v1.8c0,0.9,0.2,1.6,0.7,2.2
		c0.5,0.6,1.1,0.8,1.9,0.8h3.2v65.1c0,0,0,0.1,0,0.1l0,2.5v49.3c0,0.5,0.2,0.9,0.5,1.2c0.3,0.3,0.7,0.5,1.2,0.5l3.5,0
		c0.5,0,0.9-0.2,1.2-0.5c0.3-0.3,0.5-0.7,0.5-1.2V83.8c0,0,0-4.3,0-5.2v-0.1V16.1h3.2c0.8,0,1.4-0.3,1.9-0.8
		c0.5-0.6,0.7-1.3,0.7-2.2v-1.8c0-0.3-0.1-0.6-0.3-0.8C153.3,10.4,153,10.3,152.7,10.3z"/>
</g>
</svg>
