<svg id="Layer_1" data-name="Layer 1" xmlns="http://www.w3.org/2000/svg" width="252" height="252" viewBox="0 0 252 252"><title>box-icon</title><path d="M122.1,124.1a3.1,3.1,0,0,0-2.1-3.3L66,95.2l-7.2-3.3c-.1.8-.1,1.3-.1,1.7,0,23.1.1,46.2.1,69.2,0,1.7.8,2.3,2,2.9l42.3,22.1,18.9,9.9v-2.5Q122.1,159.7,122.1,124.1ZM189,83.8,126,54.5a4.6,4.6,0,0,0-3.4.2L63,83.7l-1.8,1.1,2.3,1.1,61,28.9a4.2,4.2,0,0,0,4.1,0l57-27.4,5.4-2.6Zm2.7,8.7-60.3,28.6a2.5,2.5,0,0,0-1.5,2.7q0,21,0,42v31.8l1.8-.9,59.8-31.2c1.5-.8,1.7-1.7,1.7-3.1q0-30.3.1-60.6V91.9Zm0,0-60.3,28.6a2.5,2.5,0,0,0-1.5,2.7q0,21,0,42v31.8l1.8-.9,59.8-31.2c1.5-.8,1.7-1.7,1.7-3.1q0-30.3.1-60.6V91.9ZM189,83.8,126,54.5a4.6,4.6,0,0,0-3.4.2L63,83.7l-1.8,1.1,2.3,1.1,61,28.9a4.2,4.2,0,0,0,4.1,0l57-27.4,5.4-2.6Zm-66.9,40.3a3.1,3.1,0,0,0-2.1-3.3L66,95.2l-7.2-3.3c-.1.8-.1,1.3-.1,1.7,0,23.1.1,46.2.1,69.2,0,1.7.8,2.3,2,2.9l42.3,22.1,18.9,9.9v-2.5Q122.1,159.7,122.1,124.1Zm0,0a3.1,3.1,0,0,0-2.1-3.3L66,95.2l-7.2-3.3c-.1.8-.1,1.3-.1,1.7,0,23.1.1,46.2.1,69.2,0,1.7.8,2.3,2,2.9l42.3,22.1,18.9,9.9v-2.5Q122.1,159.7,122.1,124.1ZM189,83.8,126,54.5a4.6,4.6,0,0,0-3.4.2L63,83.7l-1.8,1.1,2.3,1.1,61,28.9a4.2,4.2,0,0,0,4.1,0l57-27.4,5.4-2.6Zm2.7,8.7-60.3,28.6a2.5,2.5,0,0,0-1.5,2.7q0,21,0,42v31.8l1.8-.9,59.8-31.2c1.5-.8,1.7-1.7,1.7-3.1q0-30.3.1-60.6V91.9Zm0,0-60.3,28.6a2.5,2.5,0,0,0-1.5,2.7q0,21,0,42v31.8l1.8-.9,59.8-31.2c1.5-.8,1.7-1.7,1.7-3.1q0-30.3.1-60.6V91.9ZM189,83.8,126,54.5a4.6,4.6,0,0,0-3.4.2L63,83.7l-1.8,1.1,2.3,1.1,61,28.9a4.2,4.2,0,0,0,4.1,0l57-27.4,5.4-2.6Zm-66.9,40.3a3.1,3.1,0,0,0-2.1-3.3L66,95.2l-7.2-3.3c-.1.8-.1,1.3-.1,1.7,0,23.1.1,46.2.1,69.2,0,1.7.8,2.3,2,2.9l42.3,22.1,18.9,9.9v-2.5Q122.1,159.7,122.1,124.1Zm0,0a3.1,3.1,0,0,0-2.1-3.3L66,95.2l-7.2-3.3c-.1.8-.1,1.3-.1,1.7,0,23.1.1,46.2.1,69.2,0,1.7.8,2.3,2,2.9l42.3,22.1,18.9,9.9v-2.5Q122.1,159.7,122.1,124.1ZM189,83.8,126,54.5a4.6,4.6,0,0,0-3.4.2L63,83.7l-1.8,1.1,2.3,1.1,61,28.9a4.2,4.2,0,0,0,4.1,0l57-27.4,5.4-2.6Zm2.7,8.7-60.3,28.6a2.5,2.5,0,0,0-1.5,2.7q0,21,0,42v31.8l1.8-.9,59.8-31.2c1.5-.8,1.7-1.7,1.7-3.1q0-30.3.1-60.6V91.9Zm0,0-60.3,28.6a2.5,2.5,0,0,0-1.5,2.7q0,21,0,42v31.8l1.8-.9,59.8-31.2c1.5-.8,1.7-1.7,1.7-3.1q0-30.3.1-60.6V91.9Zm-.8-7.7-1.9-1L126,54.5a4.6,4.6,0,0,0-3.4.2L63,83.7l-1.8,1.1,2.3,1.1,61,28.9a4.2,4.2,0,0,0,4.1,0l57-27.4Zm-70.9,36L66,95.2l-7.2-3.3c-.1.8-.1,1.3-.1,1.7,0,23.1.1,46.2.1,69.2,0,1.7.8,2.3,2,2.9l42.3,22.1,18.9,9.9v-2.5q0-35.5,0-71.1A3.1,3.1,0,0,0,120,120.8ZM125.7,0C56.3.2.1,56.4,0,125.4S56.1,252,125.8,252.1s126.1-56.4,126.1-126.4S195.1-.2,125.7,0Zm0,240.6c-62.8.2-114.1-51-114.4-114.4S62.6,11.4,125.8,11.4A114.7,114.7,0,0,1,240.6,125.7C240.7,189.3,189.6,240.4,125.7,240.6Zm5.7-119.5a2.5,2.5,0,0,0-1.5,2.7q0,21,0,42v31.8l1.8-.9,59.8-31.2c1.5-.8,1.7-1.7,1.7-3.1q0-30.3.1-60.6V91.9l-1.5.5Zm59.5-36.3-1.9-1L126,54.5a4.6,4.6,0,0,0-3.4.2L63,83.7l-1.8,1.1,2.3,1.1,61,28.9a4.2,4.2,0,0,0,4.1,0l57-27.4Zm-70.9,36L66,95.2l-7.2-3.3c-.1.8-.1,1.3-.1,1.7,0,23.1.1,46.2.1,69.2,0,1.7.8,2.3,2,2.9l42.3,22.1,18.9,9.9v-2.5q0-35.5,0-71.1A3.1,3.1,0,0,0,120,120.8Zm2.1,3.3a3.1,3.1,0,0,0-2.1-3.3L66,95.2l-7.2-3.3c-.1.8-.1,1.3-.1,1.7,0,23.1.1,46.2.1,69.2,0,1.7.8,2.3,2,2.9l42.3,22.1,18.9,9.9v-2.5Q122.1,159.7,122.1,124.1ZM189,83.8,126,54.5a4.6,4.6,0,0,0-3.4.2L63,83.7l-1.8,1.1,2.3,1.1,61,28.9a4.2,4.2,0,0,0,4.1,0l57-27.4,5.4-2.6Zm2.7,8.7-60.3,28.6a2.5,2.5,0,0,0-1.5,2.7q0,21,0,42v31.8l1.8-.9,59.8-31.2c1.5-.8,1.7-1.7,1.7-3.1q0-30.3.1-60.6V91.9Zm0,0-60.3,28.6a2.5,2.5,0,0,0-1.5,2.7q0,21,0,42v31.8l1.8-.9,59.8-31.2c1.5-.8,1.7-1.7,1.7-3.1q0-30.3.1-60.6V91.9ZM189,83.8,126,54.5a4.6,4.6,0,0,0-3.4.2L63,83.7l-1.8,1.1,2.3,1.1,61,28.9a4.2,4.2,0,0,0,4.1,0l57-27.4,5.4-2.6Zm-66.9,40.3a3.1,3.1,0,0,0-2.1-3.3L66,95.2l-7.2-3.3c-.1.8-.1,1.3-.1,1.7,0,23.1.1,46.2.1,69.2,0,1.7.8,2.3,2,2.9l42.3,22.1,18.9,9.9v-2.5Q122.1,159.7,122.1,124.1Zm0,0a3.1,3.1,0,0,0-2.1-3.3L66,95.2l-7.2-3.3c-.1.8-.1,1.3-.1,1.7,0,23.1.1,46.2.1,69.2,0,1.7.8,2.3,2,2.9l42.3,22.1,18.9,9.9v-2.5Q122.1,159.7,122.1,124.1ZM189,83.8,126,54.5a4.6,4.6,0,0,0-3.4.2L63,83.7l-1.8,1.1,2.3,1.1,61,28.9a4.2,4.2,0,0,0,4.1,0l57-27.4,5.4-2.6Zm2.7,8.7-60.3,28.6a2.5,2.5,0,0,0-1.5,2.7q0,21,0,42v31.8l1.8-.9,59.8-31.2c1.5-.8,1.7-1.7,1.7-3.1q0-30.3.1-60.6V91.9Zm0,0-60.3,28.6a2.5,2.5,0,0,0-1.5,2.7q0,21,0,42v31.8l1.8-.9,59.8-31.2c1.5-.8,1.7-1.7,1.7-3.1q0-30.3.1-60.6V91.9ZM189,83.8,126,54.5a4.6,4.6,0,0,0-3.4.2L63,83.7l-1.8,1.1,2.3,1.1,61,28.9a4.2,4.2,0,0,0,4.1,0l57-27.4,5.4-2.6Zm-66.9,40.3a3.1,3.1,0,0,0-2.1-3.3L66,95.2l-7.2-3.3c-.1.8-.1,1.3-.1,1.7,0,23.1.1,46.2.1,69.2,0,1.7.8,2.3,2,2.9l42.3,22.1,18.9,9.9v-2.5Q122.1,159.7,122.1,124.1Zm0,0a3.1,3.1,0,0,0-2.1-3.3L66,95.2l-7.2-3.3c-.1.8-.1,1.3-.1,1.7,0,23.1.1,46.2.1,69.2,0,1.7.8,2.3,2,2.9l42.3,22.1,18.9,9.9v-2.5Q122.1,159.7,122.1,124.1ZM189,83.8,126,54.5a4.6,4.6,0,0,0-3.4.2L63,83.7l-1.8,1.1,2.3,1.1,61,28.9a4.2,4.2,0,0,0,4.1,0l57-27.4,5.4-2.6Zm2.7,8.7-60.3,28.6a2.5,2.5,0,0,0-1.5,2.7q0,21,0,42v31.8l1.8-.9,59.8-31.2c1.5-.8,1.7-1.7,1.7-3.1q0-30.3.1-60.6V91.9Zm0,0-60.3,28.6a2.5,2.5,0,0,0-1.5,2.7q0,21,0,42v31.8l1.8-.9,59.8-31.2c1.5-.8,1.7-1.7,1.7-3.1q0-30.3.1-60.6V91.9ZM189,83.8,126,54.5a4.6,4.6,0,0,0-3.4.2L63,83.7l-1.8,1.1,2.3,1.1,61,28.9a4.2,4.2,0,0,0,4.1,0l57-27.4,5.4-2.6Zm-66.9,40.3a3.1,3.1,0,0,0-2.1-3.3L66,95.2l-7.2-3.3c-.1.8-.1,1.3-.1,1.7,0,23.1.1,46.2.1,69.2,0,1.7.8,2.3,2,2.9l42.3,22.1,18.9,9.9v-2.5Q122.1,159.7,122.1,124.1Z" fill="#231f20"/><path d="M125.7,0C56.3.2.1,56.4,0,125.4S56.1,252,125.8,252.1s126.1-56.4,126.1-126.4S195.1-.2,125.7,0Zm0,240.6c-62.8.2-114.1-51-114.4-114.4S62.6,11.4,125.8,11.4A114.7,114.7,0,0,1,240.6,125.7C240.7,189.3,189.6,240.4,125.7,240.6Z" fill="#231f20"/><path d="M122.1,195.2v2.5l-18.9-9.9L60.9,165.7c-1.2-.7-2-1.2-2-2.9,0-23.1-.1-46.1-.1-69.2,0-.5,0-.9.1-1.7L66,95.2l54,25.6a3.1,3.1,0,0,1,2.1,3.3Q122,159.7,122.1,195.2Z" fill="#231f20"/><path d="M193.2,91.9v9.9q-.1,30.3-.1,60.6c0,1.4-.2,2.3-1.7,3.1l-59.8,31.3-1.8.9V165.8q0-21,0-42a2.5,2.5,0,0,1,1.5-2.7l60.3-28.6Z" fill="#231f20"/><path d="M190.9,84.8l-5.4,2.6-57,27.4a4.2,4.2,0,0,1-4.1,0l-61-28.9-2.3-1.1L63,83.7l59.6-29.1a4.6,4.6,0,0,1,3.4-.2L189,83.8Z" fill="#231f20"/></svg>