<svg id="Layer_1" data-name="Layer 1" xmlns="http://www.w3.org/2000/svg" width="252" height="252" viewBox="0 0 252 252"><title>email-icon</title><path d="M125.5,0C56.3.3.3,56.2.2,125.1s56,126.2,125.4,126.3,125.7-56.3,125.7-126S194.7-.2,125.5,0Zm0,239.9c-62.7.2-113.7-50.9-114.1-114S62.5,11.5,125.6,11.4a114.3,114.3,0,0,1,114.4,114C240.2,188.8,189.2,239.8,125.5,239.9Z" fill="#231f20"/><g id="FuF03E"><path d="M125.7,150.5,56.3,91.1v78.3h139V91.7ZM57.9,82.1l67.8,58,68.5-58Z" fill="#231f20"/><path d="M195.2,91.7v77.7H56.3V91.1l69.5,59.4Z" fill="#231f20"/><path d="M194.3,82.1l-68.5,58-67.8-58Z" fill="#231f20"/></g></svg>