<svg id="Layer_1" data-name="Layer 1" xmlns="http://www.w3.org/2000/svg" width="252" height="252" viewBox="0 0 252 252"><title>facebook-icon</title><path d="M95.8,188.1c0-14.3-.3-28.6.1-42.9.2-7-2-9.6-9.2-9.5-21.5.3-18,1.1-18.3-18.3,0-.6,0-1.1,0-1.7.2-7.1-2.1-16.3,1.5-20.7s12.9-2.9,19.8-3.2,6.1-3.6,6.2-8c.4-11.4-.3-23,1.8-34.1,4.1-22.1,22-37.5,44-39,10.8-.7,21.7-.1,32.6-.1,6,0,8.7,2.4,7.9,9.1a184.4,184.4,0,0,0-.8,23.9c.1,6.3-2.7,8.7-8.8,8.6s-13.2.1-19.7,0-11.3,3.3-11.5,10.7,0,14.9-.2,22.3c-.1,4.9,2.4,6.5,6.9,6.5h26.6c5.2,0,8.2,2.1,7.9,7.7-.5,9.1-1.2,18.2-1.3,27.3-.1,6.6-2.9,9.3-9.3,9.2s-14.3.3-21.4-.1-9.5,2.3-9.4,9.4c.3,28.3.1,56.6.1,84.9,0,11.2-.3,11.4-11.6,11.4-8.6,0-17.2-.2-25.7.1-5.9.2-8.2-2.1-8.1-8C96,218.5,95.9,203.3,95.8,188.1Z" fill="#231f20"/></svg>