<svg id="Layer_1" data-name="Layer 1" xmlns="http://www.w3.org/2000/svg" width="252" height="252" viewBox="0 0 252 252"><title>linkedin-icon</title><path d="M144.3,95.7c20-8.8,38.8-13.5,58.8-7.9,15.6,4.4,27.2,18.6,27.5,34.7.4,32.2.1,64.4.3,96.5,0,5.8-2.3,8.1-8,8-11.9-.2-23.8-.3-35.7,0-7.4.2-9.4-3.3-9.3-10,.2-25.4.1-50.8,0-76.3,0-12.6-4.8-17.8-16.2-17.6s-17.8,6.6-17.9,18c-.1,23.5,0,47,0,70.5,0,15.2,0,15.2-15.7,15.3-9.7,0-19.3-.2-29,0-6.4.2-9.6-2.2-9.5-8.9q.1-61.3,0-122.6c0-7.5,3.5-10.2,10.7-10q15.4.4,30.9,0C138.1,85.3,144,86.1,144.3,95.7Z" fill="#231f20"/><path d="M75.4,156.6c0,19.9-.2,39.9.1,59.8.1,7.9-2.8,11-10.8,10.7-11.6-.4-23.1-.2-34.7-.1-6,.1-8.9-2.5-8.9-8.6q.1-61.7,0-123.4c0-7.1,3.5-9.6,10.2-9.5,11.2.2,22.5.3,33.8,0,7.4-.2,10.4,3,10.3,10.3C75.3,116.1,75.4,136.3,75.4,156.6Z" fill="#231f20"/><path d="M48,76.9c-15.1,0-26.8-11.4-26.5-25.7S33.1,25,47.8,24.9,75.6,37.8,75.2,51.6,63.1,76.9,48,76.9Z" fill="#231f20"/></svg>