<svg id="Layer_1" data-name="Layer 1" xmlns="http://www.w3.org/2000/svg" width="252" height="252" viewBox="0 0 252 252"><title>phone-icon</title><path d="M110,96.9c-.6,0-1.6-1.2-1.7-2q-2.7-14.1-5.1-28.3c-.7-3.9-1.1-7.8-1.7-11.6a26.6,26.6,0,0,1,5,.2c4.7,1,7.7,3.2,8.2,8.7.8,7.8,2.4,15.5,3.6,23.3C118.8,90.9,113.8,96.9,110,96.9Z" fill="#231f20"/><path d="M186.7,185.5c-5.7,3.4-11.2,6.9-16.9,9.9-11.8,6.3-23.5,4.2-34.8-1.6-13.3-6.9-23.7-17.3-34.2-27.7C87.3,152.4,78.2,134.7,72,118.1c-5.4-14.5-7.5-25.8-6.5-32.1,2.1-11.8,8.2-20.2,18.4-25.4,3.5-1.8,7.4-2.8,11.2-4.2h.6c2.3,13.5,4.7,27,6.9,40.5a4.4,4.4,0,0,1-.9,3.4c-5.6,5.3-6.9,12.2-2.4,18.6q15.2,21.5,31.2,42.5c4.9,6.4,9.8,6.8,16.9,2.8a3.3,3.3,0,0,1,2.7-.3l35.5,20.5A9.3,9.3,0,0,1,186.7,185.5Z" fill="#231f20"/><path d="M191.9,177.9c-.1.7-.3,1.5-.5,2.5l-.9-.5L190,182l-38.8-22.7,1.7-1.3-.3-.2c3-2.1,5.4-4.7,8.4-5.8s5.1.2,7.2,1.2c5.5,2.8,10.9,6,16.3,9.1C194.9,168.3,193.5,167.5,191.9,177.9Z" fill="#231f20"/><path d="M249.2,99.4a123.9,123.9,0,0,0-5.4-18.3L242.6,78a123.6,123.6,0,0,0-6.5-13.5A126.1,126.1,0,0,0,125.8,0C56.5.2.3,56.3.2,125.4S56.3,252,125.9,252,252,195.6,252,125.7A124.2,124.2,0,0,0,249.2,99.4ZM125.8,240.5c-62.8.2-114-51-114.4-114.4S62.7,11.4,126,11.4a114.6,114.6,0,0,1,96.9,53.2,113.2,113.2,0,0,1,10.6,21.2l1.1,3.2q1.8,5.1,3,10.5a114.2,114.2,0,0,1,3.1,26.3C240.8,189.2,189.7,240.4,125.8,240.5Z" fill="#231f20"/><path d="M110,96.9c-.6,0-1.6-1.2-1.7-2q-2.7-14.1-5.1-28.3c-.7-3.9-1.1-7.8-1.7-11.6a26.6,26.6,0,0,1,5,.2c4.7,1,7.7,3.2,8.2,8.7.8,7.8,2.4,15.5,3.6,23.3C118.8,90.9,113.8,96.9,110,96.9Z" fill="#231f20"/><path d="M186.7,185.5c-5.7,3.4-11.2,6.9-16.9,9.9-11.8,6.3-23.5,4.2-34.8-1.6-13.3-6.9-23.7-17.3-34.2-27.7C87.3,152.4,78.2,134.7,72,118.1c-5.4-14.5-7.5-25.8-6.5-32.1,2.1-11.8,8.2-20.2,18.4-25.4,3.5-1.8,7.4-2.8,11.2-4.2h.6c2.3,13.5,4.7,27,6.9,40.5a4.4,4.4,0,0,1-.9,3.4c-5.6,5.3-6.9,12.2-2.4,18.6q15.2,21.5,31.2,42.5c4.9,6.4,9.8,6.8,16.9,2.8a3.3,3.3,0,0,1,2.7-.3l35.5,20.5A9.3,9.3,0,0,1,186.7,185.5Z" fill="#231f20"/><path d="M191.9,177.9c-.1.7-.3,1.5-.5,2.5l-.9-.5L190,182l-38.8-22.7,1.7-1.3-.3-.2c3-2.1,5.4-4.7,8.4-5.8s5.1.2,7.2,1.2c5.5,2.8,10.9,6,16.3,9.1C194.9,168.3,193.5,167.5,191.9,177.9Z" fill="#231f20"/><path d="M191.9,177.9c-.1.7-.3,1.5-.5,2.5l-.9-.5L190,182l-38.8-22.7,1.7-1.3-.3-.2c3-2.1,5.4-4.7,8.4-5.8s5.1.2,7.2,1.2c5.5,2.8,10.9,6,16.3,9.1C194.9,168.3,193.5,167.5,191.9,177.9Z" fill="#231f20"/><path d="M186.7,185.5c-5.7,3.4-11.2,6.9-16.9,9.9-11.8,6.3-23.5,4.2-34.8-1.6-13.3-6.9-23.7-17.3-34.2-27.7C87.3,152.4,78.2,134.7,72,118.1c-5.4-14.5-7.5-25.8-6.5-32.1,2.1-11.8,8.2-20.2,18.4-25.4,3.5-1.8,7.4-2.8,11.2-4.2h.6c2.3,13.5,4.7,27,6.9,40.5a4.4,4.4,0,0,1-.9,3.4c-5.6,5.3-6.9,12.2-2.4,18.6q15.2,21.5,31.2,42.5c4.9,6.4,9.8,6.8,16.9,2.8a3.3,3.3,0,0,1,2.7-.3l35.5,20.5A9.3,9.3,0,0,1,186.7,185.5Z" fill="#231f20"/><path d="M110,96.9c-.6,0-1.6-1.2-1.7-2q-2.7-14.1-5.1-28.3c-.7-3.9-1.1-7.8-1.7-11.6a26.6,26.6,0,0,1,5,.2c4.7,1,7.7,3.2,8.2,8.7.8,7.8,2.4,15.5,3.6,23.3C118.8,90.9,113.8,96.9,110,96.9Z" fill="#231f20"/></svg>