<svg id="Layer_1" data-name="Layer 1" xmlns="http://www.w3.org/2000/svg" width="252" height="252" viewBox="0 0 252 252"><title>twitter-icon</title><path d="M21.3,195.6c19.1-.9,38.5-.7,56-14.2-15.8-6.2-28.6-14.5-32.9-30.9-.4-1.5,3-4.1,4.9-6.4-10.8-7.5-19-17.7-21-32.1-1.3-9.7-.4-10.5,11.6-7.1C30.1,91.7,25.8,78.4,28.8,63.5a42.2,42.2,0,0,1,1.7-6.8c3.4-8.8,6.1-9.5,12.6-2.5C61.4,73.9,83.7,86.3,110,91.9a49.7,49.7,0,0,0,6,1c2,.2,3.9,0,5.4,0,2.2-8.8,3.3-17.3,6.5-24.9,11.4-26.7,42.8-36.8,66.8-20.9,8.8,5.9,15.8,5.6,24.2,1.4,3.7-1.9,7.8-3,11.7-4.5l2.3,2.2-8.6,17.9,12.6-2.8,2,2.6c-4,5-7.3,10.9-12.3,14.7-7.2,5.6-9.1,12.7-9.8,21.1-2.5,30.6-13.5,57.8-34.7,80.3-29.4,31.1-65.8,44.2-108.1,37.8-15.4-2.3-30.2-8.5-45.1-13.4-3.1-1-5.4-4-8.1-6.1Z" fill="#231f20"/></svg>