<svg xmlns="http://www.w3.org/2000/svg"><symbol id="linkedin-icon" viewBox="0 0 252 252"><path fill="#fff" d="M144.3 95.7c20-8.8 38.8-13.5 58.8-7.9 15.6 4.4 27.2 18.6 27.5 34.7.4 32.2.1 64.4.3 96.5 0 5.8-2.3 8.1-8 8-11.9-.2-23.8-.3-35.7 0-7.4.2-9.4-3.3-9.3-10 .2-25.4.1-50.8 0-76.3 0-12.6-4.8-17.8-16.2-17.6s-17.8 6.6-17.9 18c-.1 23.5 0 47 0 70.5 0 15.2 0 15.2-15.7 15.3-9.7 0-19.3-.2-29 0-6.4.2-9.6-2.2-9.5-8.9q.1-61.3 0-122.6c0-7.5 3.5-10.2 10.7-10q15.4.4 30.9 0c6.9-.1 12.8.7 13.1 10.3zm-68.9 60.9c0 19.9-.2 39.9.1 59.8.1 7.9-2.8 11-10.8 10.7-11.6-.4-23.1-.2-34.7-.1-6 .1-8.9-2.5-8.9-8.6q.1-61.7 0-123.4c0-7.1 3.5-9.6 10.2-9.5 11.2.2 22.5.3 33.8 0 7.4-.2 10.4 3 10.3 10.3-.1 20.3 0 40.5 0 60.8zM48 76.9c-15.1 0-26.8-11.4-26.5-25.7S33.1 25 47.8 24.9s27.8 12.9 27.4 26.7S63.1 76.9 48 76.9z"/></symbol><symbol id="box-icon" viewBox="0 0 96 96"><path fill="#fff" d="M86.8 7.7H8.5a3.7 3.7 0 0 0-3.7 3.7v73a3.7 3.7 0 0 0 3.7 3.7h78.3a3.7 3.7 0 0 0 3.7-3.7v-73a3.7 3.7 0 0 0-3.7-3.7zm1.7 76.8a1.7 1.7 0 0 1-1.7 1.7H8.5a1.7 1.7 0 0 1-1.7-1.7V23.3h81.8zm0-63.2H6.8v-9.8a1.7 1.7 0 0 1 1.7-1.8h78.3a1.7 1.7 0 0 1 1.7 1.7z"/><path fill="#fff" d="M27 15.5a1 1 0 0 1-1 1H11.2a1 1 0 1 1 0-2H26a1 1 0 0 1 1 1zm24.4 0a1 1 0 0 1-1 1H35.6a1 1 0 1 1 0-2h14.8a1 1 0 0 1 1 1zM28.7 45.7l-.5-.3h-.6l-.5.4-3.9 6.4-3.9-6.4-.5-.4h-.6l-.5.3a.9.9 0 0 0-.2.6v9.5a.9.9 0 0 0 .3.7.9.9 0 0 0 1.3 0 .9.9 0 0 0 .3-.7v-6.2l3 4.9H24l3-4.9v6.2a.9.9 0 0 0 .3.7.9.9 0 0 0 .7.3.9.9 0 0 0 .9-.9v-9.6a.9.9 0 0 0-.2-.6zm10.7-.1a.9.9 0 0 0-.7-.2.9.9 0 0 0-.6.4l-2.9 3.6-2.9-3.6a.9.9 0 0 0-.6-.4.9.9 0 0 0-.7.2.9.9 0 0 0-.1 1.3l3.4 4.3v4.6a.9.9 0 0 0 .3.7.9.9 0 0 0 1.3 0 .9.9 0 0 0 .3-.7v-4.6l3.4-4.3a.9.9 0 0 0-.1-1.3zM52.3 51a3.2 3.2 0 0 0 1-2.3 3.1 3.1 0 0 0-1-2.3 3.5 3.5 0 0 0-2.5-1h-3.4l-.7.3a.9.9 0 0 0-.3.7v9.5a.9.9 0 0 0 .3.7.9.9 0 0 0 .7.3h3.5a3.5 3.5 0 0 0 2.5-1 3.1 3.1 0 0 0 1-2.3 3 3 0 0 0-1.1-2.6zm-5-3.7h2.4a1.7 1.7 0 0 1 1.2.4 1.3 1.3 0 0 1 .5 1 1.3 1.3 0 0 1-.5 1 1.7 1.7 0 0 1-1.2.4h-2.3zm3.8 7.2a1.8 1.8 0 0 1-1.2.4h-2.5V52H50a1.8 1.8 0 0 1 1.2.4 1.2 1.2 0 0 1 .5 1 1.3 1.3 0 0 1-.6 1.1zM64.8 47a5.7 5.7 0 1 0-8.1 8 5.7 5.7 0 1 0 8.1-8zm-1.3 6.7a3.7 3.7 0 0 1-2.7 1.1 3.6 3.6 0 0 1-2.8-1 3.8 3.8 0 0 1 0-5.4 3.6 3.6 0 0 1 2.7-1.1 3.8 3.8 0 0 1 2.7 6.5zm10.1-2.6l3-4.2a.9.9 0 0 0 .2-.7.9.9 0 0 0-.4-.6.9.9 0 0 0-.7-.2.9.9 0 0 0-.6.4l-2.6 3.7-2.6-3.7a.9.9 0 0 0-.6-.4.9.9 0 0 0-.7.2.9.9 0 0 0-.4.6.9.9 0 0 0 .2.7l3 4.2-3 4.2a.9.9 0 0 0-.2.7.9.9 0 0 0 .4.6l.5.2a.9.9 0 0 0 .8-.4l2.6-3.7 2.5 3.6a.9.9 0 0 0 .8.4l.5-.2a.9.9 0 0 0 .4-.6.9.9 0 0 0-.2-.7z"/></symbol><symbol id="email-icon" viewBox="0 0 96 96"><path fill="#fff" d="M87.3 16.8H8.8A5.2 5.2 0 0 0 3.6 22v51.9a5.2 5.2 0 0 0 5.2 5.2h78.5a5.2 5.2 0 0 0 5.2-5.2V22.1a5.2 5.2 0 0 0-5.2-5.3zm3.2 57.1a3.2 3.2 0 0 1-3.2 3.2H8.8a3.2 3.2 0 0 1-3.2-3.2v-49L44 51.6a5.6 5.6 0 0 0 6.3.1l40.2-26.9zm0-51.5L49.1 50a3.6 3.6 0 0 1-4 0L5.5 22.5v-.4a3.2 3.2 0 0 1 3.2-3.2h78.6a3.2 3.2 0 0 1 3.2 3.2z"/></symbol><symbol id="twitter-icon" viewBox="0 0 252 252"><path fill="#fff" d="M21.3 195.6c19.1-.9 38.5-.7 56-14.2-15.8-6.2-28.6-14.5-32.9-30.9-.4-1.5 3-4.1 4.9-6.4-10.8-7.5-19-17.7-21-32.1-1.3-9.7-.4-10.5 11.6-7.1-9.8-13.2-14.1-26.5-11.1-41.4a42.2 42.2 0 0 1 1.7-6.8c3.4-8.8 6.1-9.5 12.6-2.5C61.4 73.9 83.7 86.3 110 91.9a49.7 49.7 0 0 0 6 1c2 .2 3.9 0 5.4 0 2.2-8.8 3.3-17.3 6.5-24.9 11.4-26.7 42.8-36.8 66.8-20.9 8.8 5.9 15.8 5.6 24.2 1.4 3.7-1.9 7.8-3 11.7-4.5l2.3 2.2-8.6 17.9 12.6-2.8 2 2.6c-4 5-7.3 10.9-12.3 14.7-7.2 5.6-9.1 12.7-9.8 21.1-2.5 30.6-13.5 57.8-34.7 80.3-29.4 31.1-65.8 44.2-108.1 37.8-15.4-2.3-30.2-8.5-45.1-13.4-3.1-1-5.4-4-8.1-6.1z"/></symbol><symbol id="facebook-icon" viewBox="0 0 252 252"><path fill="#fff" d="M95.8 188.1c0-14.3-.3-28.6.1-42.9.2-7-2-9.6-9.2-9.5-21.5.3-18 1.1-18.3-18.3v-1.7c.2-7.1-2.1-16.3 1.5-20.7s12.9-2.9 19.8-3.2 6.1-3.6 6.2-8c.4-11.4-.3-23 1.8-34.1 4.1-22.1 22-37.5 44-39 10.8-.7 21.7-.1 32.6-.1 6 0 8.7 2.4 7.9 9.1a184.4 184.4 0 0 0-.8 23.9c.1 6.3-2.7 8.7-8.8 8.6s-13.2.1-19.7 0-11.3 3.3-11.5 10.7 0 14.9-.2 22.3c-.1 4.9 2.4 6.5 6.9 6.5h26.6c5.2 0 8.2 2.1 7.9 7.7-.5 9.1-1.2 18.2-1.3 27.3-.1 6.6-2.9 9.3-9.3 9.2s-14.3.3-21.4-.1-9.5 2.3-9.4 9.4c.3 28.3.1 56.6.1 84.9 0 11.2-.3 11.4-11.6 11.4-8.6 0-17.2-.2-25.7.1-5.9.2-8.2-2.1-8.1-8 .1-15.1 0-30.3-.1-45.5z"/></symbol><symbol id="phone-icon" viewBox="0 0 96 96"><path fill="#fff" d="M72.1 90.8H24.9a3.5 3.5 0 0 1-3.5-3.5V8.7a3.5 3.5 0 0 1 3.5-3.5h47.2a3.5 3.5 0 0 1 3.5 3.5v78.6a3.5 3.5 0 0 1-3.5 3.5zM24.9 7.2a1.5 1.5 0 0 0-1.5 1.5v78.6a1.5 1.5 0 0 0 1.5 1.5h47.2a1.5 1.5 0 0 0 1.5-1.5V8.7a1.5 1.5 0 0 0-1.5-1.5z"/><path fill="#fff" d="M68.3 76.7H28.2v-62h40.1zm-38.1-2h36.1v-58H30.2zm23.3 9h-9.7a1 1 0 0 1 0-2h9.7a1 1 0 0 1 0 2z"/></symbol></svg>