<?xml version="1.0" encoding="utf-8"?>
<!-- Generator: Adobe Illustrator 22.0.1, SVG Export Plug-In . SVG Version: 6.00 Build 0)  -->
<svg version="1.1" xmlns="http://www.w3.org/2000/svg" xmlns:xlink="http://www.w3.org/1999/xlink" x="0px" y="0px"
	 viewBox="0 0 42 29" style="enable-background:new 0 0 42 29;" xml:space="preserve">
<g id="Layer_1">
	<title>Artboard 1</title>
	<path d="M0,19.3v8.5c0,0.1,0,0.2,0.1,0.3c0.1,0.1,0.2,0.1,0.3,0.1H1c0.2,0,0.4-0.2,0.4-0.4l0,0v-7.3l0,0v-0.4
		C0.8,20.1,0.3,19.8,0,19.3z"/>
	<path d="M5.9,23.2c-0.1-0.3-0.1-0.6-0.2-1l-0.3-1.2l-0.1-0.4H3.3V28c0,0,0,0.1,0,0.1c0,0,0.1,0.1,0.2,0.1H4c0.3,0,0.6-0.2,0.6-0.5
		c0,0,0-0.1,0-0.1l-0.1-6c0.1,0.3,0.1,0.7,0.2,1.1C4.8,23.1,4.9,23.6,5,24s0.2,0.8,0.3,1.2l0.3,1.1c0.1,0.3,0.1,0.6,0.2,0.9
		c0,0.2,0.1,0.3,0.1,0.5c0,0.1,0.1,0.2,0.2,0.3c0.1,0.1,0.3,0.1,0.4,0.1H7c0.1,0,0.1,0,0.2-0.1c0,0,0,0,0-0.1v-7.5H5.9L5.9,23.2z"/>
	<path d="M11.7,26.4c0,0.2,0,0.3-0.1,0.4c-0.1,0.1-0.3,0.2-0.4,0.2h-0.6v-6.5H9.1V28c0,0,0,0.1,0,0.1c0,0,0.1,0.1,0.1,0.1H11
		c0.5,0,1-0.1,1.4-0.5c0.4-0.3,0.6-0.8,0.6-1.3v-5.9h-1.3V26.4z"/>
	<path d="M17.5,26.6c0,0.2,0,0.3-0.1,0.4c-0.3,0.2-0.6,0.2-0.9,0c-0.1-0.1-0.1-0.3-0.1-0.4v-6.1H15v6.1c0,0.2,0,0.5,0.1,0.7
		c0.1,0.2,0.2,0.4,0.4,0.5c0.2,0.2,0.4,0.3,0.6,0.4c0.3,0.1,0.5,0.1,0.8,0.1c0.5,0,1-0.1,1.4-0.5c0.3-0.3,0.5-0.8,0.5-1.3v-6.1h-1.4
		V26.6z"/>
	<path d="M24.3,23.6c-0.1-0.3-0.2-0.7-0.4-1c-0.1-0.3-0.3-0.5-0.5-0.8L23,21.1c-0.1-0.2-0.2-0.4-0.3-0.6h-1.5v0.1
		c0.1,0.3,0.2,0.6,0.4,0.9c0.2,0.2,0.3,0.5,0.5,0.7c0.1,0.2,0.3,0.5,0.5,0.7c0.2,0.3,0.3,0.6,0.4,0.9c0.1,0.4,0.2,0.8,0.3,1.2
		c0.1,0.5,0.1,1.1,0.1,1.6c0,0.2,0,0.3-0.1,0.4c-0.3,0.2-0.6,0.2-0.9,0c-0.1-0.1-0.2-0.3-0.1-0.4v-2.1c0-0.2,0-0.3-0.1-0.4
		c-0.1-0.1-0.3-0.2-0.4-0.2H21c-0.1,0-0.1,0-0.1,0.1c0,0-0.1,0.1,0,0.1v2.5c0,0.5,0.2,0.9,0.5,1.3c0.4,0.3,0.9,0.5,1.4,0.5
		c0.3,0,0.5,0,0.8-0.1c0.2-0.1,0.4-0.2,0.6-0.4c0.2-0.1,0.3-0.3,0.4-0.5c0.1-0.2,0.1-0.5,0.1-0.7c0-0.6,0-1.2-0.1-1.7
		C24.5,24.4,24.4,24,24.3,23.6z"/>
	<path d="M34.2,21.7c0,0.2,0,0.3-0.1,0.4c-0.1,0.1-0.3,0.2-0.4,0.2H33v-1.7h-1.3V28c0,0.1,0,0.1,0,0.1c0,0,0.1,0.1,0.1,0.1h0.6
		c0.2,0,0.3-0.1,0.4-0.2c0.1-0.1,0.2-0.3,0.2-0.4v-4.2h0.6c0.2,0,0.3,0,0.5,0.2c0.1,0.1,0.1,0.3,0.1,0.4v3.6c0,0.2,0,0.3,0.2,0.4
		c0.1,0.1,0.3,0.2,0.4,0.2h0.6c0.1,0,0.1,0,0.2-0.1c0,0,0.1-0.1,0-0.1v-4c0-0.2-0.1-0.5-0.2-0.7c-0.1-0.2-0.3-0.3-0.5-0.5
		c0.2-0.1,0.4-0.3,0.5-0.5c0.1-0.2,0.2-0.5,0.2-0.7v-1.1h-1.4V21.7z"/>
	<path d="M39.6,20l-0.2,0.5l0,0l0,0L39,22l-0.4-1.5h-1.1l0.9,2.8v4.4c0,0.2,0.2,0.4,0.4,0.4l0,0h0.6c0.2,0,0.4-0.2,0.4-0.4
		c0,0,0,0,0,0v-4.4l0.9-2.8l0,0l0,0l0.3-1.3C40.6,19.7,40.2,20,39.6,20z"/>
	<path d="M3.7,16.9c0.2-0.2,0.3-0.4,0.4-0.6c0.1-0.2,0.1-0.5,0.1-0.7v-4.8c0-0.1,0-0.1-0.1-0.2c0,0-0.1-0.1-0.2-0.1H3.4
		c-0.2,0-0.3,0.1-0.5,0.2c-0.1,0.1-0.2,0.3-0.2,0.5v4.4l0,0c0,0.2-0.1,0.3-0.2,0.4c-0.1,0.1-0.3,0.2-0.5,0.2c-0.2,0-0.4,0-0.5-0.2
		c-0.1-0.1-0.2-0.3-0.1-0.4l0,0v-12c0-0.2,0-0.3,0.2-0.5C1.8,3,1.9,2.9,2.1,2.9c0.2,0,0.4,0.1,0.5,0.2c0.1,0.1,0.2,0.3,0.2,0.5v4.5
		c0,0.2,0,0.3,0.2,0.5C3,8.7,3.2,8.8,3.4,8.8H4c0.1,0,0.1,0,0.2-0.1c0,0,0.1-0.1,0.1-0.2V3.6c0-0.3,0-0.5-0.2-0.8
		C4,2.6,3.8,2.4,3.6,2.2C3.5,2.1,3.2,1.9,3,1.9C2.7,1.8,2.4,1.7,2.1,1.7C1.6,1.7,1,1.9,0.6,2.2C0.2,2.6,0,3.1,0,3.6v12
		c0,0.3,0.1,0.5,0.2,0.8v0.1c0.1,0.2,0.2,0.4,0.4,0.5c0.2,0.2,0.4,0.3,0.7,0.4h0.1c0.2,0.1,0.5,0.1,0.8,0.1c0.4,0,0.8-0.1,1.2-0.3
		C3.4,17.1,3.5,17,3.7,16.9z"/>
	<path d="M9.6,16.6c0,0.2,0,0.3,0.2,0.5c0.1,0.1,0.3,0.2,0.5,0.2h0.6c0.1,0,0.1,0,0.2-0.1c0,0,0.1-0.1,0.1-0.2V2.1
		c0,0,0-0.1-0.1-0.1c0,0-0.1-0.1-0.2-0.1h-0.6c-0.2,0-0.3,0-0.5,0.1C9.6,2.1,9.6,2.3,9.6,2.4v6.4H8.3V2.5c0-0.2,0-0.3-0.2-0.5
		C8,1.9,7.8,1.8,7.7,1.9H7.1C7,1.9,6.9,1.9,6.9,2c0,0-0.1,0.1-0.1,0.2V17c0,0.1,0,0.1,0.1,0.2c0,0,0.1,0.1,0.2,0.1h0.6
		c0.2,0,0.4-0.1,0.5-0.2c0.1-0.1,0.2-0.3,0.2-0.5V10h1.3V16.6z"/>
	<path d="M16.1,14.6l0.1,1l0,0.9v0.2c0,0.1,0,0.2,0.1,0.3c0,0,0.1,0.1,0.1,0.1c0.1,0.1,0.3,0.2,0.5,0.2h0.6c0.1,0,0.2-0.1,0.2-0.3
		v-0.6l-0.1-0.9L16.4,2.1c0,0,0-0.1-0.1-0.1c0,0-0.1-0.1-0.1-0.1h-1.2c-0.1,0-0.1,0-0.1,0.1c0,0-0.1,0.1-0.1,0.2l-1.2,13.4L13.4,17
		c0,0.1,0,0.1,0.1,0.2c0.1,0.1,0.1,0.1,0.2,0.1h0.5c0.2,0,0.3-0.1,0.4-0.2c0.1-0.1,0.2-0.2,0.2-0.4l0.1-1.2l0.1-1L16.1,14.6z
		 M15.6,5.2l0.5,8.2h-1L15.6,5.2z"/>
	<path d="M21.3,17.3c0.3,0.1,0.6,0.1,0.9,0.1h0.1c0.3,0,0.5,0,0.7-0.1c0.3-0.1,0.5-0.2,0.7-0.4c0.1-0.1,0.2-0.3,0.3-0.4
		c0.2-0.3,0.2-0.6,0.2-0.9v-12c0-0.3,0-0.5-0.1-0.8c-0.1-0.2-0.2-0.4-0.4-0.6c-0.2-0.2-0.4-0.3-0.7-0.4c-0.3-0.1-0.6-0.1-0.9-0.1
		c-0.6,0-1.1,0.1-1.5,0.5c-0.4,0.4-0.6,0.9-0.5,1.4v12c0,0.3,0.1,0.5,0.1,0.8c0.1,0.2,0.2,0.4,0.4,0.6c0.1,0.1,0.2,0.2,0.3,0.2
		C21.1,17.2,21.2,17.3,21.3,17.3z M21.6,3.6c0-0.2,0-0.3,0.2-0.5c0.3-0.3,0.7-0.3,1,0c0.1,0.1,0.2,0.3,0.1,0.5v11.9l0,0
		c0,0.2-0.1,0.3-0.2,0.4c0,0.1-0.1,0.1-0.2,0.1c-0.1,0-0.3,0-0.4,0.1c-0.2,0-0.3-0.1-0.4-0.2c-0.1-0.1-0.2-0.3-0.1-0.4l0,0L21.6,3.6
		z"/>
	<path d="M34.3,16.7V2.1c0,0,0-0.1,0-0.1c0,0-0.1-0.1-0.2-0.1h-0.6c-0.2,0-0.3,0-0.5,0.1c-0.1,0.1-0.2,0.3-0.2,0.4v14.9h0.9
		C34,17.3,34.3,17.1,34.3,16.7C34.3,16.7,34.3,16.7,34.3,16.7z"/>
	<path d="M37.8,17.3c0.3,0.1,0.6,0.1,0.9,0.1c0.6,0,1.1-0.1,1.5-0.5c0.4-0.4,0.6-0.8,0.5-1.4v-4.8c0-0.1,0-0.1,0-0.2
		c0,0-0.1-0.1-0.2-0.1h-0.6c-0.2,0-0.3,0.1-0.5,0.2c-0.1,0.1-0.2,0.3-0.2,0.5v4.4l0,0c0,0.2-0.1,0.3-0.2,0.4c-0.3,0.3-0.7,0.3-1,0
		C38,15.9,38,15.7,38,15.5l0,0V3.6c0-0.2,0-0.3,0.2-0.5c0.3-0.3,0.7-0.3,1,0c0.1,0.1,0.2,0.3,0.2,0.5v4.5c0,0.2,0,0.3,0.2,0.5
		c0.1,0.1,0.3,0.2,0.5,0.2h0.6c0.1,0,0.1,0,0.2-0.1c0,0,0.1-0.1,0-0.2V3.6c0-0.3,0-0.5-0.2-0.8c-0.1-0.2-0.2-0.4-0.4-0.6
		c-0.2-0.2-0.4-0.3-0.7-0.4c-0.3-0.1-0.6-0.1-0.9-0.1c-0.6,0-1.1,0.1-1.5,0.5c-0.4,0.4-0.6,0.9-0.5,1.4v12c0,0.2,0,0.5,0.1,0.7l0,0
		c0.1,0.2,0.2,0.4,0.4,0.6C37.3,17.1,37.5,17.2,37.8,17.3L37.8,17.3z"/>
	<path d="M29.9,1.9h-3.5c-0.1,0-0.1,0-0.2,0c0,0-0.1,0.1-0.1,0.2v0.4c0,0.2,0,0.3,0.1,0.5c0.1,0.1,0.3,0.2,0.4,0.2h0.7v24.7
		c0,0.2,0.2,0.4,0.4,0.4c0,0,0,0,0,0h0.7c0.2,0,0.4-0.2,0.4-0.4c0,0,0,0,0,0V17.4c0,0,0-0.9,0-1.1V3.1h0.7c0.2,0,0.3-0.1,0.4-0.2
		c0.1-0.1,0.2-0.3,0.1-0.5V2.1c0-0.1,0-0.1-0.1-0.2C30,1.9,30,1.9,29.9,1.9z"/>
</g>
<g id="Layer_2">
</g>
</svg>
