<?xml version="1.0" encoding="utf-8"?>
<!-- Generator: Adobe Illustrator 22.0.1, SVG Export Plug-In . SVG Version: 6.00 Build 0)  -->
<svg version="1.1" id="Layer_1" xmlns="http://www.w3.org/2000/svg" xmlns:xlink="http://www.w3.org/1999/xlink" x="0px" y="0px"
	 viewBox="0 0 256 256" style="enable-background:new 0 0 256 256;" xml:space="preserve">
<style type="text/css">
	.st0{fill:#FFFFFF;}
</style>
<rect y="0" width="256" height="256"/>
<path class="st0" d="M54.6,62.3h146.9c7.2,0,12.9,5.8,12.9,12.9l0,0c0,7.2-5.8,12.9-12.9,12.9H54.6c-7.2,0-12.9-5.8-12.9-12.9l0,0
	C41.6,68.1,47.4,62.3,54.6,62.3z M54.6,115.5h146.9c7.2,0,12.9,5.8,12.9,12.9l0,0c0,7.2-5.8,12.9-12.9,12.9H54.6
	c-7.2,0-12.9-5.8-12.9-12.9l0,0C41.6,121.3,47.4,115.5,54.6,115.5z M54.6,168.7h146.9c7.2,0,12.9,5.8,12.9,12.9l0,0
	c0,7.2-5.8,12.9-12.9,12.9H54.6c-7.2,0-12.9-5.8-12.9-12.9l0,0C41.6,174.5,47.4,168.7,54.6,168.7z"/>
</svg>
