<?xml version="1.0" encoding="utf-8"?>
<!-- Generator: Adobe Illustrator 22.0.1, SVG Export Plug-In . SVG Version: 6.00 Build 0)  -->
<svg version="1.1" id="Layer_1" xmlns="http://www.w3.org/2000/svg" xmlns:xlink="http://www.w3.org/1999/xlink" x="0px" y="0px"
	 viewBox="0 0 256 256" style="enable-background:new 0 0 256 256;" xml:space="preserve">
<style type="text/css">
	.st0{fill:#FFFFFF;}
</style>
<rect width="256" height="256"/>
<path class="st0" d="M173.9,194.5L62.4,83.1c-5.4-5.4-5.4-14.3,0-19.7l0,0c5.4-5.4,14.3-5.4,19.7,0l111.5,111.5
	c5.4,5.4,5.4,14.3,0,19.7l0,0C188.2,199.9,179.3,199.9,173.9,194.5z M193.6,83.2L82.1,194.7c-5.4,5.4-14.3,5.4-19.7,0l0,0
	c-5.4-5.4-5.4-14.3,0-19.7L173.9,63.5c5.4-5.4,14.3-5.4,19.7,0l0,0C199,68.9,199,77.8,193.6,83.2z"/>
</svg>
