<svg id="Layer_1" data-name="Layer 1" xmlns="http://www.w3.org/2000/svg" viewBox="0 0 41.97 29"><defs><style>.cls-1{fill:#fff;}</style></defs><title>Artboard 1</title><path class="cls-1" d="M0,19.28v8.53a.34.34,0,0,0,.11.26.34.34,0,0,0,.26.11H1a.36.36,0,0,0,.36-.36V20.55h0v-.43A1.77,1.77,0,0,1,0,19.28Z"/><path class="cls-1" d="M5.94,23.18q-.1-.43-.23-1l-.26-1.25-.07-.35H3.32V28a.23.23,0,0,0,0,.15.19.19,0,0,0,.15.06h.57a.54.54,0,0,0,.58-.6l-.1-6q.08.5.21,1.12c.08.41.17.83.27,1.25s.19.84.28,1.25l.26,1.12q.12.51.19.87a2.89,2.89,0,0,1,.08.48A.54.54,0,0,0,6,28a.58.58,0,0,0,.4.13H7a.18.18,0,0,0,.15-.06A.23.23,0,0,0,7.19,28V20.55H5.89Z"/><path class="cls-1" d="M11.67,26.44a.65.65,0,0,1-.14.43.54.54,0,0,1-.44.17H10.5v-6.5H9.15V28a.23.23,0,0,0,0,.15.18.18,0,0,0,.15.06h1.73a2,2,0,0,0,1.42-.46A1.63,1.63,0,0,0,13,26.44V20.55H11.67Z"/><path class="cls-1" d="M17.5,26.6a.64.64,0,0,1-.15.44.66.66,0,0,1-.88,0,.65.65,0,0,1-.14-.44V20.55H15V26.6a1.82,1.82,0,0,0,.14.72,1.53,1.53,0,0,0,.39.54,1.79,1.79,0,0,0,.61.35,2.48,2.48,0,0,0,.8.12,2,2,0,0,0,1.43-.46,1.63,1.63,0,0,0,.51-1.27V20.55H17.5Z"/><path class="cls-1" d="M24.3,23.58a5.6,5.6,0,0,0-.41-1c-.15-.27-.3-.53-.46-.77L23,21.13a4.86,4.86,0,0,1-.31-.58H21.18l0,.09a4.7,4.7,0,0,0,.41.86q.23.36.46.7c.15.22.31.46.46.7a4.8,4.8,0,0,1,.41.87,6.49,6.49,0,0,1,.29,1.18,11.09,11.09,0,0,1,.11,1.65.66.66,0,0,1-.14.44.67.67,0,0,1-.88,0,.64.64,0,0,1-.15-.44V24.5a.63.63,0,0,0-.15-.43.56.56,0,0,0-.44-.17H21a.18.18,0,0,0-.15.06.23.23,0,0,0-.05.15V26.6a1.63,1.63,0,0,0,.51,1.27,2,2,0,0,0,1.43.46,2.49,2.49,0,0,0,.79-.12,1.78,1.78,0,0,0,.62-.35,1.51,1.51,0,0,0,.39-.54,1.82,1.82,0,0,0,.14-.72,12.18,12.18,0,0,0-.11-1.74A7.63,7.63,0,0,0,24.3,23.58Z"/><path class="cls-1" d="M34.2,21.68a.67.67,0,0,1-.14.43.55.55,0,0,1-.44.17H33V20.55H31.68V28a.23.23,0,0,0,.05.15.18.18,0,0,0,.15.06h.56a.56.56,0,0,0,.44-.17.62.62,0,0,0,.15-.43V23.42h.58a.55.55,0,0,1,.45.17.66.66,0,0,1,.14.44v3.56a.62.62,0,0,0,.15.43.56.56,0,0,0,.44.17h.56a.18.18,0,0,0,.15-.06.23.23,0,0,0,.05-.15V24a1.31,1.31,0,0,0-.18-.71,1.33,1.33,0,0,0-.49-.45,1.3,1.3,0,0,0,.49-.45,1.35,1.35,0,0,0,.18-.73V20.55H34.2Z"/><path class="cls-1" d="M39.62,20l-.16.53v0h0L39,22l-.4-1.46H37.51l.86,2.84v4.42a.36.36,0,0,0,.36.36h.62a.36.36,0,0,0,.36-.36V23.39l.86-2.84h0v0l.34-1.34A1.53,1.53,0,0,1,39.62,20Z"/><path class="cls-1" d="M3.66,16.92a1.59,1.59,0,0,0,.43-.64,2.05,2.05,0,0,0,.13-.72V10.75a.25.25,0,0,0-.06-.16A.2.2,0,0,0,4,10.52H3.36a.61.61,0,0,0-.46.19.7.7,0,0,0-.15.47v4.35a.15.15,0,0,1,0,0,.68.68,0,0,1-.16.45.61.61,0,0,1-.48.18A.6.6,0,0,1,1.62,16a.69.69,0,0,1-.15-.45.15.15,0,0,1,0,0V3.6a.7.7,0,0,1,.16-.48.61.61,0,0,1,.48-.18.6.6,0,0,1,.48.18.72.72,0,0,1,.15.48V8.1a.68.68,0,0,0,.16.47.6.6,0,0,0,.48.18H4a.2.2,0,0,0,.16-.06.25.25,0,0,0,.06-.16V3.6a2,2,0,0,0-.15-.78,1.64,1.64,0,0,0-.43-.59A1.93,1.93,0,0,0,3,1.85a2.64,2.64,0,0,0-.86-.13,2.22,2.22,0,0,0-1.55.5A1.77,1.77,0,0,0,0,3.6v12a2,2,0,0,0,.15.76l0,.08a1.65,1.65,0,0,0,.39.51,2,2,0,0,0,.66.38l.11,0a2.8,2.8,0,0,0,.76.1,2.53,2.53,0,0,0,1.21-.26A1.67,1.67,0,0,0,3.66,16.92Z"/><path class="cls-1" d="M9.58,16.6a.68.68,0,0,0,.16.47.6.6,0,0,0,.48.18h.62a.2.2,0,0,0,.16-.07.24.24,0,0,0,.06-.16V2.12A.24.24,0,0,0,11,2a.2.2,0,0,0-.16-.07h-.62A.67.67,0,0,0,9.76,2a.51.51,0,0,0-.18.41V8.81H8.31V2.45A.51.51,0,0,0,8.13,2a.68.68,0,0,0-.46-.15H7.06A.2.2,0,0,0,6.89,2a.25.25,0,0,0-.05.16V17a.25.25,0,0,0,.05.16.2.2,0,0,0,.16.07h.61a.6.6,0,0,0,.48-.18.68.68,0,0,0,.16-.47V10H9.58Z"/><path class="cls-1" d="M16.12,14.6l.06,1,.05.92v.22a.55.55,0,0,0,.09.26.62.62,0,0,0,.11.13.66.66,0,0,0,.45.16h.6a.25.25,0,0,0,.22-.27l0-.56-.08-.85L16.41,2.11A.27.27,0,0,0,16.34,2a.18.18,0,0,0-.15-.07H14.95a.19.19,0,0,0-.15.07.28.28,0,0,0-.06.15L13.54,15.56,13.41,17a.25.25,0,0,0,.06.19.27.27,0,0,0,.23.09h.54a.66.66,0,0,0,.45-.16.57.57,0,0,0,.2-.39L15,15.56l.06-1Zm-.56-9.43.48,8.2h-1Z"/><path class="cls-1" d="M21.33,17.29a2.7,2.7,0,0,0,.87.13h.11a2.74,2.74,0,0,0,.74-.11,1.8,1.8,0,0,0,.7-.39,1.58,1.58,0,0,0,.33-.42,1.93,1.93,0,0,0,.22-.94V3.6a2,2,0,0,0-.15-.78,1.64,1.64,0,0,0-.43-.59,1.93,1.93,0,0,0-.67-.38,2.65,2.65,0,0,0-.86-.13,2.22,2.22,0,0,0-1.55.5,1.78,1.78,0,0,0-.55,1.38v12a2,2,0,0,0,.15.76,1.66,1.66,0,0,0,.43.59,1.79,1.79,0,0,0,.3.21A2.07,2.07,0,0,0,21.33,17.29ZM21.56,3.6a.7.7,0,0,1,.16-.48.73.73,0,0,1,1,0,.72.72,0,0,1,.15.48V15.54a.15.15,0,0,1,0,0,.68.68,0,0,1-.16.45.5.5,0,0,1-.16.12,2.16,2.16,0,0,0-.39.06.56.56,0,0,1-.42-.18.69.69,0,0,1-.15-.45.15.15,0,0,1,0,0Z"/><path class="cls-1" d="M34.3,16.69V2.12A.25.25,0,0,0,34.25,2a.2.2,0,0,0-.16-.07h-.61A.68.68,0,0,0,33,2a.52.52,0,0,0-.18.41V17.3h.87A.59.59,0,0,0,34.3,16.69Z"/><path class="cls-1" d="M37.79,17.29a2.69,2.69,0,0,0,.87.13,2.22,2.22,0,0,0,1.55-.5,1.77,1.77,0,0,0,.55-1.36V10.75a.25.25,0,0,0-.05-.16.2.2,0,0,0-.16-.07h-.64a.61.61,0,0,0-.46.19.7.7,0,0,0-.15.47v4.35a.15.15,0,0,1,0,0,.67.67,0,0,1-.16.45.73.73,0,0,1-1,0,.69.69,0,0,1-.15-.45.15.15,0,0,1,0,0V3.6a.7.7,0,0,1,.16-.48.73.73,0,0,1,1,0,.72.72,0,0,1,.15.48V8.1a.67.67,0,0,0,.16.47.6.6,0,0,0,.48.18h.61a.2.2,0,0,0,.16-.06.25.25,0,0,0,.05-.16V3.6a2,2,0,0,0-.15-.78,1.64,1.64,0,0,0-.43-.59,1.93,1.93,0,0,0-.67-.38,2.64,2.64,0,0,0-.86-.13,2.22,2.22,0,0,0-1.55.5,1.77,1.77,0,0,0-.55,1.38v12a2,2,0,0,0,.13.72v0a1.64,1.64,0,0,0,.43.59,1.9,1.9,0,0,0,.62.36Z"/><path class="cls-1" d="M29.91,1.89H26.42a.25.25,0,0,0-.16.05.2.2,0,0,0-.07.16v.37a.67.67,0,0,0,.15.46.51.51,0,0,0,.41.18h.68V27.81a.36.36,0,0,0,.36.36h.74a.36.36,0,0,0,.36-.36V17.41s0-.91,0-1.1V3.12h.68A.51.51,0,0,0,30,2.94a.67.67,0,0,0,.15-.46V2.11a.2.2,0,0,0-.07-.16A.25.25,0,0,0,29.91,1.89Z"/></svg>