<?xml version="1.0" encoding="utf-8"?>
<!-- Generator: Adobe Illustrator 22.0.1, SVG Export Plug-In . SVG Version: 6.00 Build 0)  -->
<svg version="1.1" id="Layer_1" xmlns="http://www.w3.org/2000/svg" xmlns:xlink="http://www.w3.org/1999/xlink" x="0px" y="0px"
	 viewBox="0 0 702.8 702.8" style="enable-background:new 0 0 702.8 702.8;" xml:space="preserve">
<style type="text/css">
	.st0{fill:#FFFFFF;}
</style>
<title>Artboard 1</title>
<path class="st0" d="M371.1,219.7c-1.5,0.3-3,0.6-4.4,1.1c-8,3-8.8,2.6-8-5.5c1.4-14.1,3.5-28.1,4.6-42.2s1.7-30.8,1.9-46.2
	c0.1-9.1-1.1-18.3-1.8-27.5c-1.7-22.2-8-43.2-15.8-63.9c-2.5-6.5-4.8-13.1-7.1-19.6c-0.3-0.9-0.3-1.9-0.1-2.9
	c0.9-3.6,13.1-12.8,17-13c6.5-0.2,9.2,1.9,11.8,9.7c3.1,9.4,6.5,18.7,9.5,28.2s5.4,17.3,7.7,26s4.4,19.8,3.9,30.1
	c0,1.2,0.9,2.5,1.3,3.8c0.9-0.8,1.7-1.7,2.5-2.6c5.8-10.9,11.9-21.6,17.2-32.7s8.6-21.7,13.8-32.1c1.9-3.9,6.6-6.5,10.3-9.2
	c2.3-1.7,4.9-2.8,7.7-3.3c2.6-0.3,6,0,8,1.5s3.3,5.4,1.5,9c-5.7,11.4-11,23-17.1,34.2c-7.1,13.2-15,26-22.5,39.1
	c-0.6,0.9-0.5,2.2-0.8,3.3c1.2,0,2.5-0.1,3.7-0.4c12.5-5.7,25.2-9.8,39.2-9.7s22.9,6.8,29.2,18.1c5.3,9.6,7.8,20.3,9.5,31
	s3.9,23,4.7,34.5c1,13.9,1.9,28,0.9,41.8c-1.4,18.3-4.6,36.4-9.6,54c-2.5,7.1-5.2,14.1-5.2,14.1c-6.5,15.8-11.5,32.3-16.8,48.6
	c-4.1,12.5-7.4,25.1-11.2,37.7c-2.4,8-5,15.9-7.6,23.9c-0.6,1.4-1.4,2.7-2.4,3.8c-0.2,0.3-1.2,0-1.9-0.1l-1.1-0.5
	c-1.6,2.7-6.2,2.2-6.5,6.9c-0.2,2.9-2.9,5.6-4.5,8.4c-0.1,0.3-0.8,0.4-1.2,0.6s-0.6-1.4-0.4-1.7c2.5-3.3,2.8-7,2.7-10.9
	c0-0.8,1.2-1.6,1.7-2.6s1.2-3.1,1.8-4.8l-0.4-0.4c-0.3,0.2-0.8,0.4-0.9,0.7c-0.8,1.8-1.2,3.7-3.9,3.7c-0.7,0-1.5,2.3-1.8,3.6
	s-0.1,3.9-0.4,5.8c-0.3,0.8-1,1.5-1.8,1.7c-1.3,0-3.5-0.3-3.8-1s0.2-3,0.5-4.4c3-12.8,5.6-25.6,9-38.2c2.4-9,6-17.6,8.8-26.4
	c1.9-6.4,3.1-13,5.3-19.3c4.2-12,6.1-16.3,11.2-33.3c2.9-10.5,5.2-21.2,7-31.9c2.2-10.6,3.7-21.3,4.7-32.1c1-13.2,1.9-26.7,0.8-39.8
	s-4.6-28-7.4-42c-1.5-6.9-3.1-14-5.8-20.5c-6.1-14.1-19-18.2-32.7-11.9c-12,5.6-22,13.2-29,25.3c-3.1,5.4-3.6,10.5-4.3,16
	c-1.9,15.1-3.4,30.3-4.9,45.5c-0.3,3.3-0.3,6.7,0.1,10c0.3,3.6-1,5.3-4.5,6.3S375.4,218.1,371.1,219.7"/>
<path class="st0" d="M190,91.9c-3.8-7.6-7.2-14.9-10.8-22.2c-0.4-0.7-1.5-1.1-2.2-1.6c-0.4,1-0.6,2-0.7,3
	c0.6,13.8,2.2,27.7,1.7,41.4s-0.5,26.1-4.4,38.9s-7.2,27.7-10.7,41.6c-1.6,5.9-3.1,11.9-5,17.7c-0.8,1.9-2,3.5-3.7,4.6
	c-4.9,3.7-10.1,7.1-15.2,10.6s-6.2,2-7.9-2.9c-5.1-14.8-9.7-29.9-15.8-44.3c-3.5-8-9.5-14.9-14.4-22.3c-0.6-0.8-2-1.2-3-1.7
	c0.3,1.1,0.5,2.2,0.7,3.3c3.2,14.7,6.8,29.2,9.4,44c1.5,8.4,1.5,17,2.1,25.6c0.4,5,1.2,10,0.8,14.9c-0.9,12.6-2.4,25.2-3.7,37.8
	c-0.4,3.8-0.2,7.8-1.1,11.5s-2,6.3-4.2,8.3s-6.7,4.3-10.4,5.9c-1.7,0.7-3.6,0.8-5.4,0.2c-0.8-0.2-0.8-2.8-0.9-4.4s-0.1-4.8,0-7.2
	c0.6-12.7,2.1-25.5,1.7-38.2c-0.7-20.6-1.1-41.4-6.5-61.5c-4.2-15.4-7.3-31.2-12.8-46.1s-12.3-26.2-19.3-38.9
	c-1.7-3.2-1.2-4.7,0.5-6.8s6-6.8,9.1-10.1c4.8-5.2,9.6-5,14.9-0.4c9.6,8.4,20,16.1,29.3,24.9c7.6,7.3,14.7,15.1,21.3,23.3
	c5.3,6.1,9.9,12.7,13.9,19.7c3.1,5.6,4.3,12.2,6.4,18.4c0.2,0.6,0.8,1,1.2,1.5s1.5-0.9,1.6-1.5c1.2-3.7,2.1-7.5,2.9-11.3
	c2.3-13.5,4.4-27.1,4-41.1c-0.3-9.1,1.6-18.4,0.6-27.4c-2.2-18.9-2.2-38.3-9.3-56.5c-1.1-2.7-1.6-5.8-3-8.3
	c-3.6-6.4-0.8-10.9,3.6-15.2l6.8-6.8c3.6-3.6,9.4-3.6,13,0c0.1,0.1,0.3,0.3,0.4,0.4c4.8,4.9,9.9,9.5,14.5,14.6s11.8,13.1,17.2,20.1
	c4.8,6.2,9.1,12.8,12.8,19.7c3.1,5.6,5.3,11.8,7.5,17.9c4.6,12.6,7.6,25.7,8.7,39.1c0.8,9.7,2.3,19.4,2.8,29.1
	c0.7,14.1,0.9,28.2,0.9,42.3c0.1,3.7-1.2,7.5-1.6,11.2s0,4.9-0.2,7.3c-1.2,12.6-2.2,25.2-3.9,37.8c-1.9,14.4-4.6,28.8-6.6,43.3
	c-1.6,11.5-3.5,23.2-3.6,34.8s-8.4,16.8-17.2,21.3c-2.3,1.1-4.6,2-7,2.9s-5.4-0.4-4.8-3.8c1.4-8.5,3.3-16.9,4.6-25.4
	c1-6.1,1.3-12.3,2.1-18.4s2-12.9,3.1-19.3s1.8-10.8,2.6-16.2c1.3-9.4,2.6-18.8,3.8-28.1c0.5-3.4,0.8-6.8,1-10.2
	c1-15.3,2.5-30.5,2.7-45.8c0.2-13.3-0.5-26.5-1.9-39.7C201,128.4,197.9,109.7,190,91.9L190,91.9z M42,530.6
	c-0.3,9.6-0.9,18.8-0.9,27.9s1,20.6,0.8,30.8c-0.3,14.3-1,28.6-1.9,42.9c-0.5,8-1.5,15.9-3,23.7c-0.7,3.6-3,7.2-5.5,10.1
	s-4.4,1.5-6.8,1.6c-0.6,0.1-1.6-2.2-1.8-3.5c-0.9-4.5-1.6-9-2-13.5c-1.1-11.1-2.3-22.2-2.8-33.4c-0.2-5.4,1.5-10.9,1.7-16.5
	S19,590.1,19,584.8c-0.1-12.6,0.1-25.3-0.1-38c-0.2-16-0.5-32-1-48.1c-0.4-14.4-1.1-28.9-1.9-43.3c-0.4-7.2-1.5-14.5-1.7-21.7
	s0.7-11.9,0.8-17.9v-26c0,0,10.9-19.1,18.3-18.3c3.6,0.5,6.9,2.1,9.6,4.4c10.3,9.2,20.7,18.2,30,28.2c7.9,8.9,14.7,18.8,20,29.5
	c8.5,16.8,14.6,34.4,19.7,52.3c2.5,8.7,3.4,17.8,5.1,26.7c0.3,0.8,0.7,1.6,1.1,2.4c0.6-0.7,1.5-1.3,1.7-2.1
	c1.3-4.8,2.3-9.6,3.8-14.3c3.3-10.2,4.9-20.8,4.8-31.5c0-3.7-0.9-7.4-0.8-11.1c0.1-11.1,0.7-22.2,0.9-33.2s0.8-21.3-0.2-31.8
	l-6.3-39.5c-0.8-7.4-3.4-13.9-5.5-20.8c-0.6-2.1,1.9-5.3,3.4-7.8s3.2-2.8,4.3-4.4c3.6-5.2,8-5.9,13.1-2.7c1.8,1.1,4.1,2.8,4.5,4.5
	c1.6,8.5,2.7,17.1,4,25.7c1.9,13,4.6,25.9,5.5,38.9s-0.5,25-0.7,37.5c-0.1,6.8,0.6,13.6-0.2,20.3c-1.2,10-0.1,20.2-3.4,30.2
	s-2.6,18.3-5.3,27.1c-3.5,11.2-8.7,21.9-13.1,32.9l-4,11.3c-0.5,1.2-1.1,2.7-2.1,3.4c-6.5,3.8-13.1,7.6-19.8,11.2
	c-3.1,1.6-5.3,0-5.9-3.3c-2.7-15.2-3-30.7-8.4-45.5c-1.4-4-0.6-8.9-1.9-13.1c-3.5-11-7.6-21.8-11.4-32.7c-4.9-14-11-27.6-19.7-39.7
	c-3.6-5.2-8.5-9.3-12.9-13.9c-0.8-0.4-1.6-0.7-2.5-0.9c-0.4,0.8-0.6,1.6-0.7,2.5c-0.1,13.3-0.2,26.6,0,39.9
	C40.6,478.1,41.3,504.1,42,530.6L42,530.6z M532.5,386.5c-8.7,2.6-17,5.5-25.6,7.1c-6,1.1-12.1,1.3-18.1,0.6
	c-5.2-0.4-6.3-4.7-2.6-8.3c3.4-3.4,7.1-6.4,11.1-9.1c2-1.3,4.5-1.8,6.9-1.5c9.9,2.4,19.4,0.2,28.5-2.6c19.2-6.1,38.1-13,57.1-19.6
	c11-3.8,21.9-8.3,33.1-11.6c5.1-1.5,11.2-2.4,16.2-1.1c8.1,2.2,12.8,9.5,14.3,17.1c2.6,13.1,3.4,26.3,0.4,39.7c-2,9-2.7,18.4-4,27.6
	c-0.5,3.8-0.8,7.7-2.1,11.2c-1,2.3-2.9,4.2-5.2,5.2c-4.4,1.8-9.5,2-13.6,4.2c-8.4,4.6-17.4,3.3-25.7,2.4c-11.8-1.4-23,1.7-34.4,2.3
	c-3.2,0.3-6.3,0.9-9.3,1.9c-2.2,0.7-3.7,1.8-3.8,4.9c-0.8,16.9-3.5,33.6-8.1,49.8c-2.1,7.3-4.2,14.6-6.2,21.9c0,0.9,0.1,1.9,0.3,2.8
	c1-0.1,2-0.3,2.9-0.7c13.8-7.7,28.9-9.9,44.3-8.6c10.8,0.9,21.4,3.3,32.1,4.6c7.7,1,15.5,1.5,23.2,2c4.2,0.2,5-1,3-4.9
	c-4-8.6-10.3-15.8-18.2-21c-5.3-3.4-5.4-4.6-1.3-9.1s6.3-7,9.5-10.4s5.8-3.1,9.5-1.4c10.4,4.6,16,13.8,22.4,22.5
	c4.6,6.2,7.2,13.7,7.4,21.4c0.1,2.1-1.2,5.3-2.9,6.2c-8.9,5-17.9,10.1-27.3,13.9c-7.8,3.2-16.4,2.6-24.8,1.2
	c-5.2-0.9-10.6-0.6-15.8-1.2c-10.9-1.1-21.7-2.8-32.5-3.7c-14.5-1.2-28.1,1.4-39.3,11.7c-5.2,4.8-10.2,9.8-15.6,14.5
	c-1,1-3,0.9-4.5,1.3c-0.3-1.7-1.5-3.8-0.9-5.1c8.5-18,10.9-37.7,15.8-56.7c2-7.7,2.2-15.8,3.1-23.7c0.5-5,1.3-10.1,0.8-15
	c-1.5-15.7-3-31.5-10.4-46c-0.9-1.7-1.9-3.3-2.9-5c-4.2-7.7-3.8-10.1,3.2-17.9l3.4-3.4c3.9-3.9,8.6-4,12.5-0.2
	c6.1,6,8.9,13.8,11.5,21.6c1.4,4.6,2.4,9.4,2.9,14.2c0.6,4.2,2.2,5.9,6.5,5c7.3-1.5,14.7-3.1,22-4.8c9.8-2.4,20-2.7,30-0.9
	c8.5,1.7,11.9-2,12.7-12.5s3.1-23.8,3.5-35.8c0.3-8.9-0.2-18-6.7-25.4c-3.1-3.6-6.6-3.9-10.5-2.4l-37.6,14.7
	C559.4,375.6,546.1,380.9,532.5,386.5L532.5,386.5z M601.4,62.4c12.3-1.6,24.1-3.5,35.9-4.6c4.8-0.5,9.7-3,14.7,0.6s5.2,4.7,1.5,8.9
	c-8.1,9.5-17.1,18.5-21.5,30.4c-3.4,9.2-6.3,18.6-8.4,28.2c-1,4.4,0,9.3-0.3,14c-0.1,1.4-1.3,3.6-2.5,3.9
	c-7.1,1.9-14.3,3.4-21.4,4.9c-3.8,0.8-5.9-1.3-5.6-4.8c0.5-6.7,0.9-13.6,2.4-20.1c4.4-18.5,13.7-34.6,25.3-49.5
	c0.6-1,1.1-2.1,1.5-3.3c-1.4-0.4-2.9-0.5-4.3-0.5c-7.3,1-14.7,2.4-22.1,3.4c-10.6,1.4-21.3,2.6-31.9,3.8c-4.7,0.5-9.4,0.7-14,1
	c-7.2,0.4-14.5,0.8-21.7,0.9c-3.7,0.1-4,1.8-2.4,4.2c6.3,9.9,11.1,20.7,14.2,32c3.5,12.4,5.9,25.1,8.8,37.7c0.2,1.1,0.6,2.2,0.9,3.4
	c0.7,3.2,0.7,8.8,2.2,9.3c4.3,1.2,9.3,0.6,14,0.4s8.4-2.8,12.3,0.6c1.2,1.1,3.2,3,3,3.8s-2.4,3.8-4.1,4.4
	c-6.7,2.3-13.6,4.2-20.5,5.8c-3.8,0.9-5.2,2.3-5.1,6.2c0.3,9.8,0.3,19.5,0.1,29.3c-0.1,8.1-0.6,16.3-0.9,24.5
	c-0.2,4,0.8,4.8,5.2,3.8c12.8-2.8,25.8-5.2,38.9-6.9c10.3-1.3,20.8-1.5,31.3-2s22.7-0.5,34.1-1.1c4.5-0.3,6.2,3,8.3,5.4
	s0.7,4-2.5,4.3c-5.5,0.5-10.9,1.6-16.4,1.8c-11.4,0.6-22.8,0.3-34.2,1.2c-18.7,1.5-37.6,2.5-55.8,7.7c-10,2.8-19.8,6.8-29.6,10.5
	c-5,1.8-7.2,0.6-7.1-4.6c0.2-19.3,0-38.8,1.1-58.1c1.1-21-2.7-41.2-7.5-61.4c-3-12.8-6.2-25.5-12-37.2c-3.7-7.5-9-14.2-13.1-21.5
	s-11.2-9.7-17.2-14s-5.7-8.3-0.3-12c1.6-1.2,3.2-2.3,4.9-3.3c9.3-5.3,18.4-3.8,26.8,3c3.5,2.7,7.6,4.6,12,5.4
	c6.7,1.2,13.5,1.9,20.3,2.1c10.4,0.5,20.8,1.1,31.2,0.8S590.6,63.3,601.4,62.4z M308.7,253.3c1.3-9.4,2.5-18.3,3.7-27.2
	c0.5-3.2,0.8-6.4,1.1-9.6c1.2-11.9,0.9-24-0.9-35.8c-0.8-5.7-0.6-11.5-1-17.3c-0.2-3.2-0.5-6.5-1-9.7s-4.9-4.2-9.3-2.8l-30.6,9.4
	l-3,0.9c-3.4,1.4-6.2,3-6.1,7.6c0.3,7.3,0.1,14.7,0.1,22c0,3.4,0.9,7.2-0.2,10.2c-1.8,4.3-4.2,8.3-7.1,11.9
	c-0.9,1.3-4.3,2.5-5.1,1.8c-2.2-1.8-3.8-4.1-4.7-6.7c-1-3.5-0.8-7.4-1.1-11.1c-0.7-7.9-1.6-15.7-1.9-23.6c0-5,0.4-10,1-15
	c0.4-4.2,1.6-8.4,1.8-12.6c0.7-15,4-29.4,8-43.7s8.1-26.1,12.2-39.1c1.6-5.2,2.5-11,5.3-15.5s8.2-10.6,13-15.1
	c3-2.7,12.1,0.1,14.2,3.7c7.2,12.3,15.1,24.4,20.9,37.3s8,23.9,11.8,35.9c3.2,10.1,3.9,20.6,4.9,31.1c1.3,13.5,2.8,26.9,4.8,40.2
	s-0.3,24.9-2,37.3c-0.8,6-1.2,12-1.9,17.9s-1.9,12.7-2.9,19c-0.6,3.5-1.4,7.1-1.9,10.7c-1,6.9-2.1,13.9-2.9,20.9s-1.4,14.8-1.8,22.2
	c-0.2,2.8-0.8,4.3-3.8,5.4c-4.8,1.9-9.1,5.1-13.8,7.2c-2.6,1.1-5.6,1.2-8.5,1.7c-0.3-2.9-1.1-5.8-0.8-8.7c1-8.4,2.4-16.9,3.8-25.3
	s3.2-17.2,4.7-25.8C308.2,259.8,308.5,256.5,308.7,253.3 M276.6,144.9c1.2-0.1,2.4-0.4,3.5-0.7c7.7-2.3,15.2-5.2,23-6.7
	c3.8-0.8,4.1-2.5,3.6-5c-1.5-8.6-2.3-17.5-5.2-25.7c-4.3-12.7-9.6-25.1-17-36.5c-1.9-2.9-3.7-1.8-4.5,0.5
	c-3.1,9.7-6.1,19.5-8.6,29.4s-4.6,21.1-6.8,31.7c-0.8,4.5-1.4,9-1.8,13.6c-0.1,0.9,1.9,2.9,2.6,2.8
	C269.2,147.5,273,146.3,276.6,144.9L276.6,144.9z M222.4,542.1c9.9-0.8,18.3-7.6,21.1-17.1c1.6-6.1,3.8-12.1,4.6-18.2
	c1.2-8.8,1.5-17.7,2.1-26.5c0.8-12.9-2.5-25.2-6.9-37c-7-19.5-20.2-36.2-37.6-47.4c-4.8-3.2-11.6-3.6-17.3-5.4
	c-1.7-0.5-3.1-1.5-4.2-2.9c-0.4-0.5,1.1-2.7,2.2-3.7c2.7-2.7,5.9-5,8.6-7.8c6.5-7.1,13.9-5.2,22-3.1c14.1,3.6,23.7,12.8,33,23.3
	s14.3,21.5,19.3,33.3c2.8,6.6,3.8,14,4.8,21.1c1.8,12.7,2.3,25.5-0.8,38.1c-2.5,9.9-4.8,19.7-7.9,29.4
	c-3.5,11.7-11.1,21.8-21.3,28.4c-15.5,10.5-34.2,15-52.7,12.7c-3-0.3-5.9-1.8-8.9-2.8s-5.4-1.4-7.3-3c-2.9-2.4-5.4-5.1-7.5-8.1
	c-7.2-9.8-9.5-21.1-10.7-33c-1.7-16.4,1.7-32.1,5.8-47.7c3.5-13.4,6.5-27.1,13.8-38.9c4.1-6.7,10.9-11.8,17-17.2
	c1.1-1,4.7-0.2,6.6,0.7s3.3,4.2,1.3,7.6c-10.1,16.8-15.2,35.5-19.3,54.3c-1.8,8.1-2.4,16.4-1.8,24.6c1.5,15,3.9,30.1,15.5,41.4
	c3.1,3.3,7.4,5.1,11.9,5c3.9,0,7.7,0.6,11.6,0.8C220.2,543.1,221.1,542.5,222.4,542.1L222.4,542.1z M298.4,360.1
	c3.8-4,7.4-7.9,13.3-6.9c3.6,0.6,6.6,2.3,6.6,6.8c0.3,18.8,0.6,37.5,1,56.2l0.9,42c0.3,12.3,1.2,24.7,0.8,37
	c-0.2,10.6-1.8,21.2-2.6,31.9c-0.2,1.9,0.8,3.9,0.8,5.8c0.1,7.4,0.1,14.8,0,22.2c-0.2,1.5-0.6,2.9-1.4,4.2c-0.5,0.1-1,0-1.4-0.2
	c-0.7-0.3-1.3-0.8-1.9-1.1s-1,2.7-0.5,3.1c3.7,3.4,2.2,6.5,0.7,10.4s-0.1,6.9-0.3,10.4c0,1.1-0.8,2.2-1.3,3.3
	c-0.8-1-2.2-1.9-2.4-3.1c-0.8-5.3-1.4-10.6-2-15.9c-1.3-11.3-2.6-22.6-3.8-33.9s-2.2-21.6-2.8-32.4c-0.2-5.6-1.1-11.3-2.6-16.7
	c-2.6-9.1-3.8-18.6-5.1-28.1c-0.6-5.2,0.2-10.6-0.1-16s-1.5-12.2-1.8-18.3c-0.2-4.4,1-8.9,0.8-13.2c-0.4-10.3-1-20.6-1.9-30.9
	C290.7,369.8,292.5,364.4,298.4,360.1 M312.1,542.1l2.2-7.3c-0.2-0.5-0.5-0.8-1-1c-0.5,0.1-1,0.4-1.3,0.8
	C311.7,537.1,311.8,539.6,312.1,542.1 M314,552.7c0.2-0.4,0.4-0.8,0.5-1.2c-0.1-1.4-0.1-2.9-0.3-4.3s-0.8-0.1-1.2-0.2
	c-0.2,1.2-0.4,2.4-0.4,3.6C312.6,551.5,313.2,552.3,314,552.7 M314.5,518.6c0.2-0.4,0.4-0.9,0.5-1.3c-1.1,1-2.3,2-3.3,3.1
	s0.3,1.1,0.5,1.6C313.2,521,314,519.9,314.5,518.6L314.5,518.6z M332.9,647.4c5.8,5.5,11.2,10.8,14.1,18.1c0.6,2,0.4,4.1-0.5,6
	c-1.1,2.6-4,3.9-6.6,2.8c-0.2-0.1-0.3-0.1-0.5-0.2c-7.7-3.3-15.5-6.4-23.2-9.9c-3.5-1.6-6.3-1.7-8.9,1.6
	c-6.2,8.3-12.3,16.8-18.8,24.8c-3.5,4.3-7.9,7.9-12,11.7c-0.5,0.5-2.2,0.6-2.5,0.2c-0.6-0.8-0.7-1.9-0.4-2.8
	c2.9-5.7,5.8-11.4,9.1-16.8c5-7.9,10.3-15.6,15.5-23.3c1.7-2.6,0.8-4.5-1.6-6.2c-3.2-2.2-6.2-4.5-9-7.1c-4.3-4.1-1.3-8.4,0.7-12
	c2.1-4.3,7.2-6.2,11.6-4.5c3.6,1.3,7.6,2.5,10.4,4.9s5.7,0.7,7.7-1.6s5.5-7.1,8.5-10.4c2.4-2.6,6.6-2.8,9.2-0.4
	c0.2,0.2,0.4,0.4,0.6,0.7c2.8,3,0.9,5.2-1.3,7.6c-2.7,2.9-5.2,6-7.3,9.4c-0.7,1.1,0,3.5,0.9,4.7S331.3,646.4,332.9,647.4
	L332.9,647.4z M417.6,340.1c4.8-3.2,9.5-6.1,14.2-9s7.4-0.9,8.8,1.6s1.3,6.9,0.5,10.1s-3.7,6.5-4.8,10c-2.4,7-6.7,13.2-12.5,17.9
	l-27.2,22.4c-4.7,4-9.3,8-13.8,12.2c-7.6,7.2-15.2,14.4-22.5,21.9c-3,3.2-5.6,6.8-7.7,10.7c-12.8,23.2,27.3,17.2,36.9,15.1
	c17-3.8,34.6-4.5,51.9-2.1c20.5,2.9,36.3,11.3,46,29.9c5.9,11.6,10.8,24,12.8,36.9c5.3,34.8-11.9,63-43.6,75.3
	c-15.4,6-31.8,8.5-48.2,9.7c-21,1.6-32.5-6.9-47.9-19.7c-6.3-5.2-7.9-12.3-8.9-19.9c-0.4-3.3-2.1-6.5-2.2-9.8
	c-0.1-4.8,0.4-9.5,1.7-14.1c1.6-6.1,4-11.9,7.2-17.4c2.2-3.5,6.3-6,9.7-8.7s4.3-2.5,6.3-4s5.7-2.5,8.5,0.1l2.6,2.5
	c2.3,2.1,2.3,4.1,0.1,6.3c-6.4,6.6-8.6,14.8-9.9,23.6c-2.7,18.4,9.4,41.1,28.7,44.5c7.3,1.2,14.7,1.6,21.8-0.3
	c8.7-2.2,17.2-4.5,25.7-8.8c3.8-1.9,8.2-4,11.4-6.9c7.1-6.4,8.7-18.5,10-27.5s0.7-15.6,0-23.3c-1.2-13.7-11.6-37.4-23.1-45.3
	c-3.6-2.3-7.6-4-11.8-5c-17-4.7-34.9-4.4-52.3-2.2s-33.4,9.5-49.6,2.1c-6.5-3-7.6-9.1-9.6-15s-0.2-9,2.6-12.7
	c9.8-13.3,21-25.4,33.6-36.1l14.9-13.3c5.3-4.6,10.8-8.9,15.9-13.6c8.1-7.6,14.3-17,18.1-27.4C413.2,347.1,415.5,343.8,417.6,340.1
	 M356.5,567l1.8,2c0.2-0.8,0.7-1.7,0.5-2.4c-0.3-1.1-0.7-2.1-1.2-3.1C357.1,564.6,356.7,565.8,356.5,567L356.5,567z M446.7,399.2
	c-0.6,1.6-1.3,3.2-1.8,4.8l0.8,0.3c0.7-1.3,1.3-2.6,1.9-3.9C447.7,400.1,447.5,399.6,446.7,399.2L446.7,399.2z M442,412.7
	c0,0.7,0,1.3-0.2,2l-1.4-0.2L442,412.7z"/>
</svg>
