<svg xmlns="http://www.w3.org/2000/svg" width="702.8" height="702.8" viewBox="0 0 702.8 702.8"><title>Artboard 1</title><path d="M371.1 219.7a31.3 31.3 0 0 0-4.4 1.1c-8 3-8.8 2.6-8-5.5 1.4-14.1 3.5-28.1 4.6-42.2s1.7-30.8 1.9-46.2c.1-9.1-1.1-18.3-1.8-27.5-1.7-22.2-8-43.2-15.8-63.9-2.5-6.5-4.8-13.1-7.1-19.6a5.7 5.7 0 0 1-.1-2.9c.9-3.6 13.1-12.8 17-13 6.5-.2 9.2 1.9 11.8 9.7 3.1 9.4 6.5 18.7 9.5 28.2s5.4 17.3 7.7 26 4.4 19.8 3.9 30.1c0 1.2.9 2.5 1.3 3.8a20.4 20.4 0 0 0 2.5-2.6c5.8-10.9 11.9-21.6 17.2-32.7s8.6-21.7 13.8-32.1c1.9-3.9 6.6-6.5 10.3-9.2a17.5 17.5 0 0 1 7.7-3.3c2.6-.3 6 0 8 1.5s3.3 5.4 1.5 9c-5.7 11.4-11 23-17.1 34.2-7.1 13.2-15 26-22.5 39.1-.6.9-.5 2.2-.8 3.3a14.5 14.5 0 0 0 3.7-.4c12.5-5.7 25.2-9.8 39.2-9.7s22.9 6.8 29.2 18.1c5.3 9.6 7.8 20.3 9.5 31s3.9 23 4.7 34.5c1 13.9 1.9 28 .9 41.8a269.5 269.5 0 0 1-9.6 54c-2.5 7.1-5.2 14.1-5.2 14.1-6.5 15.8-11.5 32.3-16.8 48.6-4.1 12.5-7.4 25.1-11.2 37.7-2.4 8-5 15.9-7.6 23.9a15.2 15.2 0 0 1-2.4 3.8c-.2.3-1.2 0-1.9-.1l-1.1-.5c-1.6 2.7-6.2 2.2-6.5 6.9-.2 2.9-2.9 5.6-4.5 8.4-.1.3-.8.4-1.2.6s-.6-1.4-.4-1.7c2.5-3.3 2.8-7 2.7-10.9 0-.8 1.2-1.6 1.7-2.6s1.2-3.1 1.8-4.8l-.4-.4c-.3.2-.8.4-.9.7-.8 1.8-1.2 3.7-3.9 3.7-.7 0-1.5 2.3-1.8 3.6s-.1 3.9-.4 5.8a2.6 2.6 0 0 1-1.8 1.7c-1.3 0-3.5-.3-3.8-1s.2-3 .5-4.4c3-12.8 5.6-25.6 9-38.2 2.4-9 6-17.6 8.8-26.4 1.9-6.4 3.1-13 5.3-19.3 4.2-12 6.1-16.3 11.2-33.3a321.4 321.4 0 0 0 7-31.9 288.7 288.7 0 0 0 4.7-32.1c1-13.2 1.9-26.7.8-39.8s-4.6-28-7.4-42c-1.5-6.9-3.1-14-5.8-20.5-6.1-14.1-19-18.2-32.7-11.9-12 5.6-22 13.2-29 25.3-3.1 5.4-3.6 10.5-4.3 16-1.9 15.1-3.4 30.3-4.9 45.5a47.8 47.8 0 0 0 .1 10c.3 3.6-1 5.3-4.5 6.3s-7.6 3-11.9 4.6" fill="#fff"/><path d="M190 91.9c-3.8-7.6-7.2-14.9-10.8-22.2-.4-.7-1.5-1.1-2.2-1.6a10.9 10.9 0 0 0-.7 3c.6 13.8 2.2 27.7 1.7 41.4s-.5 26.1-4.4 38.9-7.2 27.7-10.7 41.6c-1.6 5.9-3.1 11.9-5 17.7a10.3 10.3 0 0 1-3.7 4.6c-4.9 3.7-10.1 7.1-15.2 10.6s-6.2 2-7.9-2.9c-5.1-14.8-9.7-29.9-15.8-44.3-3.5-8-9.5-14.9-14.4-22.3-.6-.8-2-1.2-3-1.7.3 1.1.5 2.2.7 3.3 3.2 14.7 6.8 29.2 9.4 44 1.5 8.4 1.5 17 2.1 25.6.4 5 1.2 10 .8 14.9-.9 12.6-2.4 25.2-3.7 37.8-.4 3.8-.2 7.8-1.1 11.5s-2 6.3-4.2 8.3-6.7 4.3-10.4 5.9a7.7 7.7 0 0 1-5.4.2c-.8-.2-.8-2.8-.9-4.4s-.1-4.8 0-7.2c.6-12.7 2.1-25.5 1.7-38.2-.7-20.6-1.1-41.4-6.5-61.5-4.2-15.4-7.3-31.2-12.8-46.1s-12.3-26.2-19.3-38.9c-1.7-3.2-1.2-4.7.5-6.8s6-6.8 9.1-10.1c4.8-5.2 9.6-5 14.9-.4 9.6 8.4 20 16.1 29.3 24.9a247.2 247.2 0 0 1 21.3 23.3 121 121 0 0 1 13.9 19.7c3.1 5.6 4.3 12.2 6.4 18.4.2.6.8 1 1.2 1.5s1.5-.9 1.6-1.5a103.9 103.9 0 0 0 2.9-11.3c2.3-13.5 4.4-27.1 4-41.1-.3-9.1 1.6-18.4.6-27.4-2.2-18.9-2.2-38.3-9.3-56.5-1.1-2.7-1.6-5.8-3-8.3-3.6-6.4-.8-10.9 3.6-15.2l6.8-6.8a9.2 9.2 0 0 1 13.4.4c4.8 4.9 9.9 9.5 14.5 14.6s11.8 13.1 17.2 20.1a151 151 0 0 1 12.8 19.7c3.1 5.6 5.3 11.8 7.5 17.9a150.5 150.5 0 0 1 8.7 39.1c.8 9.7 2.3 19.4 2.8 29.1.7 14.1.9 28.2.9 42.3.1 3.7-1.2 7.5-1.6 11.2s0 4.9-.2 7.3c-1.2 12.6-2.2 25.2-3.9 37.8-1.9 14.4-4.6 28.8-6.6 43.3-1.6 11.5-3.5 23.2-3.6 34.8s-8.4 16.8-17.2 21.3c-2.3 1.1-4.6 2-7 2.9s-5.4-.4-4.8-3.8c1.4-8.5 3.3-16.9 4.6-25.4 1-6.1 1.3-12.3 2.1-18.4s2-12.9 3.1-19.3 1.8-10.8 2.6-16.2c1.3-9.4 2.6-18.8 3.8-28.1.5-3.4.8-6.8 1-10.2 1-15.3 2.5-30.5 2.7-45.8a329.8 329.8 0 0 0-1.9-39.7c-2-18.8-5.1-37.5-13-55.3zM42 530.6c-.3 9.6-.9 18.8-.9 27.9s1 20.6.8 30.8c-.3 14.3-1 28.6-1.9 42.9a172.5 172.5 0 0 1-3 23.7c-.7 3.6-3 7.2-5.5 10.1s-4.4 1.5-6.8 1.6c-.6.1-1.6-2.2-1.8-3.5a125.6 125.6 0 0 1-2-13.5c-1.1-11.1-2.3-22.2-2.8-33.4-.2-5.4 1.5-10.9 1.7-16.5s-.8-10.6-.8-15.9c-.1-12.6.1-25.3-.1-38-.2-16-.5-32-1-48.1-.4-14.4-1.1-28.9-1.9-43.3-.4-7.2-1.5-14.5-1.7-21.7s.7-11.9.8-17.9v-26s10.9-19.1 18.3-18.3a18.9 18.9 0 0 1 9.6 4.4c10.3 9.2 20.7 18.2 30 28.2a135.6 135.6 0 0 1 20 29.5c8.5 16.8 14.6 34.4 19.7 52.3 2.5 8.7 3.4 17.8 5.1 26.7a25.6 25.6 0 0 0 1.1 2.4c.6-.7 1.5-1.3 1.7-2.1 1.3-4.8 2.3-9.6 3.8-14.3a99.6 99.6 0 0 0 4.8-31.5c0-3.7-.9-7.4-.8-11.1.1-11.1.7-22.2.9-33.2s.8-21.3-.2-31.8l-6.3-39.5c-.8-7.4-3.4-13.9-5.5-20.8-.6-2.1 1.9-5.3 3.4-7.8s3.2-2.8 4.3-4.4c3.6-5.2 8-5.9 13.1-2.7 1.8 1.1 4.1 2.8 4.5 4.5 1.6 8.5 2.7 17.1 4 25.7 1.9 13 4.6 25.9 5.5 38.9s-.5 25-.7 37.5c-.1 6.8.6 13.6-.2 20.3-1.2 10-.1 20.2-3.4 30.2s-2.6 18.3-5.3 27.1c-3.5 11.2-8.7 21.9-13.1 32.9l-4 11.3c-.5 1.2-1.1 2.7-2.1 3.4-6.5 3.8-13.1 7.6-19.8 11.2-3.1 1.6-5.3 0-5.9-3.3-2.7-15.2-3-30.7-8.4-45.5-1.4-4-.6-8.9-1.9-13.1-3.5-11-7.6-21.8-11.4-32.7-4.9-14-11-27.6-19.7-39.7-3.6-5.2-8.5-9.3-12.9-13.9a9.2 9.2 0 0 0-2.5-.9 7.2 7.2 0 0 0-.7 2.5c-.1 13.3-.2 26.6 0 39.9.5 26 1.2 52 1.9 78.5zM532.5 386.5c-8.7 2.6-17 5.5-25.6 7.1a64.5 64.5 0 0 1-18.1.6c-5.2-.4-6.3-4.7-2.6-8.3a74.7 74.7 0 0 1 11.1-9.1 10.1 10.1 0 0 1 6.9-1.5c9.9 2.4 19.4.2 28.5-2.6 19.2-6.1 38.1-13 57.1-19.6 11-3.8 21.9-8.3 33.1-11.6 5.1-1.5 11.2-2.4 16.2-1.1 8.1 2.2 12.8 9.5 14.3 17.1 2.6 13.1 3.4 26.3.4 39.7-2 9-2.7 18.4-4 27.6-.5 3.8-.8 7.7-2.1 11.2a9.8 9.8 0 0 1-5.2 5.2c-4.4 1.8-9.5 2-13.6 4.2-8.4 4.6-17.4 3.3-25.7 2.4-11.8-1.4-23 1.7-34.4 2.3a41.5 41.5 0 0 0-9.3 1.9c-2.2.7-3.7 1.8-3.8 4.9a221.3 221.3 0 0 1-8.1 49.8c-2.1 7.3-4.2 14.6-6.2 21.9a8.9 8.9 0 0 0 .3 2.8 9.5 9.5 0 0 0 2.9-.7c13.8-7.7 28.9-9.9 44.3-8.6 10.8.9 21.4 3.3 32.1 4.6 7.7 1 15.5 1.5 23.2 2 4.2.2 5-1 3-4.9a50.7 50.7 0 0 0-18.2-21c-5.3-3.4-5.4-4.6-1.3-9.1s6.3-7 9.5-10.4 5.8-3.1 9.5-1.4c10.4 4.6 16 13.8 22.4 22.5a37.4 37.4 0 0 1 7.4 21.4c.1 2.1-1.2 5.3-2.9 6.2-8.9 5-17.9 10.1-27.3 13.9-7.8 3.2-16.4 2.6-24.8 1.2-5.2-.9-10.6-.6-15.8-1.2-10.9-1.1-21.7-2.8-32.5-3.7-14.5-1.2-28.1 1.4-39.3 11.7-5.2 4.8-10.2 9.8-15.6 14.5-1 1-3 .9-4.5 1.3-.3-1.7-1.5-3.8-.9-5.1 8.5-18 10.9-37.7 15.8-56.7 2-7.7 2.2-15.8 3.1-23.7.5-5 1.3-10.1.8-15-1.5-15.7-3-31.5-10.4-46-.9-1.7-1.9-3.3-2.9-5-4.2-7.7-3.8-10.1 3.2-17.9l3.4-3.4c3.9-3.9 8.6-4 12.5-.2 6.1 6 8.9 13.8 11.5 21.6a76.1 76.1 0 0 1 2.9 14.2c.6 4.2 2.2 5.9 6.5 5 7.3-1.5 14.7-3.1 22-4.8a72.2 72.2 0 0 1 30-.9c8.5 1.7 11.9-2 12.7-12.5s3.1-23.8 3.5-35.8c.3-8.9-.2-18-6.7-25.4-3.1-3.6-6.6-3.9-10.5-2.4l-37.6 14.7c-13.3 5.2-26.6 10.5-40.2 16.1zM601.4 62.4c12.3-1.6 24.1-3.5 35.9-4.6 4.8-.5 9.7-3 14.7.6s5.2 4.7 1.5 8.9c-8.1 9.5-17.1 18.5-21.5 30.4a212.4 212.4 0 0 0-8.4 28.2c-1 4.4 0 9.3-.3 14-.1 1.4-1.3 3.6-2.5 3.9-7.1 1.9-14.3 3.4-21.4 4.9-3.8.8-5.9-1.3-5.6-4.8.5-6.7.9-13.6 2.4-20.1 4.4-18.5 13.7-34.6 25.3-49.5a16.6 16.6 0 0 0 1.5-3.3 15.8 15.8 0 0 0-4.3-.5c-7.3 1-14.7 2.4-22.1 3.4-10.6 1.4-21.3 2.6-31.9 3.8-4.7.5-9.4.7-14 1-7.2.4-14.5.8-21.7.9-3.7.1-4 1.8-2.4 4.2a116 116 0 0 1 14.2 32c3.5 12.4 5.9 25.1 8.8 37.7.2 1.1.6 2.2.9 3.4.7 3.2.7 8.8 2.2 9.3 4.3 1.2 9.3.6 14 .4s8.4-2.8 12.3.6c1.2 1.1 3.2 3 3 3.8s-2.4 3.8-4.1 4.4a208 208 0 0 1-20.5 5.8c-3.8.9-5.2 2.3-5.1 6.2.3 9.8.3 19.5.1 29.3-.1 8.1-.6 16.3-.9 24.5-.2 4 .8 4.8 5.2 3.8 12.8-2.8 25.8-5.2 38.9-6.9 10.3-1.3 20.8-1.5 31.3-2s22.7-.5 34.1-1.1c4.5-.3 6.2 3 8.3 5.4s.7 4-2.5 4.3c-5.5.5-10.9 1.6-16.4 1.8-11.4.6-22.8.3-34.2 1.2-18.7 1.5-37.6 2.5-55.8 7.7-10 2.8-19.8 6.8-29.6 10.5-5 1.8-7.2.6-7.1-4.6.2-19.3 0-38.8 1.1-58.1 1.1-21-2.7-41.2-7.5-61.4-3-12.8-6.2-25.5-12-37.2-3.7-7.5-9-14.2-13.1-21.5s-11.2-9.7-17.2-14-5.7-8.3-.3-12a52.5 52.5 0 0 1 4.9-3.3c9.3-5.3 18.4-3.8 26.8 3a27.9 27.9 0 0 0 12 5.4 151.8 151.8 0 0 0 20.3 2.1c10.4.5 20.8 1.1 31.2.8s20.7-1.8 31.5-2.7zM308.7 253.3c1.3-9.4 2.5-18.3 3.7-27.2.5-3.2.8-6.4 1.1-9.6a143 143 0 0 0-.9-35.8c-.8-5.7-.6-11.5-1-17.3-.2-3.2-.5-6.5-1-9.7s-4.9-4.2-9.3-2.8l-30.6 9.4-3 .9c-3.4 1.4-6.2 3-6.1 7.6.3 7.3.1 14.7.1 22 0 3.4.9 7.2-.2 10.2a50 50 0 0 1-7.1 11.9c-.9 1.3-4.3 2.5-5.1 1.8a14.9 14.9 0 0 1-4.7-6.7c-1-3.5-.8-7.4-1.1-11.1-.7-7.9-1.6-15.7-1.9-23.6a125.9 125.9 0 0 1 1-15c.4-4.2 1.6-8.4 1.8-12.6.7-15 4-29.4 8-43.7s8.1-26.1 12.2-39.1c1.6-5.2 2.5-11 5.3-15.5s8.2-10.6 13-15.1c3-2.7 12.1.1 14.2 3.7 7.2 12.3 15.1 24.4 20.9 37.3s8 23.9 11.8 35.9c3.2 10.1 3.9 20.6 4.9 31.1 1.3 13.5 2.8 26.9 4.8 40.2s-.3 24.9-2 37.3c-.8 6-1.2 12-1.9 17.9s-1.9 12.7-2.9 19c-.6 3.5-1.4 7.1-1.9 10.7-1 6.9-2.1 13.9-2.9 20.9s-1.4 14.8-1.8 22.2c-.2 2.8-.8 4.3-3.8 5.4-4.8 1.9-9.1 5.1-13.8 7.2-2.6 1.1-5.6 1.2-8.5 1.7-.3-2.9-1.1-5.8-.8-8.7 1-8.4 2.4-16.9 3.8-25.3s3.2-17.2 4.7-25.8a88 88 0 0 0 1-9.7m-32.1-108.4a19.7 19.7 0 0 0 3.5-.7c7.7-2.3 15.2-5.2 23-6.7 3.8-.8 4.1-2.5 3.6-5-1.5-8.6-2.3-17.5-5.2-25.7-4.3-12.7-9.6-25.1-17-36.5-1.9-2.9-3.7-1.8-4.5.5-3.1 9.7-6.1 19.5-8.6 29.4s-4.6 21.1-6.8 31.7a126.7 126.7 0 0 0-1.8 13.6c-.1.9 1.9 2.9 2.6 2.8a73.6 73.6 0 0 0 11.2-3.4zM222.4 542.1a24 24 0 0 0 21.1-17.1c1.6-6.1 3.8-12.1 4.6-18.2 1.2-8.8 1.5-17.7 2.1-26.5.8-12.9-2.5-25.2-6.9-37a94.2 94.2 0 0 0-37.6-47.4c-4.8-3.2-11.6-3.6-17.3-5.4a8.4 8.4 0 0 1-4.2-2.9c-.4-.5 1.1-2.7 2.2-3.7 2.7-2.7 5.9-5 8.6-7.8 6.5-7.1 13.9-5.2 22-3.1 14.1 3.6 23.7 12.8 33 23.3s14.3 21.5 19.3 33.3c2.8 6.6 3.8 14 4.8 21.1 1.8 12.7 2.3 25.5-.8 38.1-2.5 9.9-4.8 19.7-7.9 29.4a51.5 51.5 0 0 1-21.3 28.4 77.2 77.2 0 0 1-52.7 12.7c-3-.3-5.9-1.8-8.9-2.8s-5.4-1.4-7.3-3a41.2 41.2 0 0 1-7.5-8.1c-7.2-9.8-9.5-21.1-10.7-33-1.7-16.4 1.7-32.1 5.8-47.7 3.5-13.4 6.5-27.1 13.8-38.9 4.1-6.7 10.9-11.8 17-17.2 1.1-1 4.7-.2 6.6.7s3.3 4.2 1.3 7.6c-10.1 16.8-15.2 35.5-19.3 54.3a81.6 81.6 0 0 0-1.8 24.6c1.5 15 3.9 30.1 15.5 41.4a16 16 0 0 0 11.9 5c3.9 0 7.7.6 11.6.8.8.1 1.7-.5 3-.9zM298.4 360.1c3.8-4 7.4-7.9 13.3-6.9 3.6.6 6.6 2.3 6.6 6.8.3 18.8.6 37.5 1 56.2l.9 42c.3 12.3 1.2 24.7.8 37-.2 10.6-1.8 21.2-2.6 31.9-.2 1.9.8 3.9.8 5.8q.2 11.1 0 22.2a10.4 10.4 0 0 1-1.4 4.2 2.7 2.7 0 0 1-1.4-.2c-.7-.3-1.3-.8-1.9-1.1s-1 2.7-.5 3.1c3.7 3.4 2.2 6.5.7 10.4s-.1 6.9-.3 10.4c0 1.1-.8 2.2-1.3 3.3-.8-1-2.2-1.9-2.4-3.1-.8-5.3-1.4-10.6-2-15.9-1.3-11.3-2.6-22.6-3.8-33.9s-2.2-21.6-2.8-32.4a73.5 73.5 0 0 0-2.6-16.7c-2.6-9.1-3.8-18.6-5.1-28.1-.6-5.2.2-10.6-.1-16s-1.5-12.2-1.8-18.3c-.2-4.4 1-8.9.8-13.2-.4-10.3-1-20.6-1.9-30.9-.7-6.9 1.1-12.3 7-16.6m13.7 182l2.2-7.3a1.7 1.7 0 0 0-1-1 2 2 0 0 0-1.3.8 31.6 31.6 0 0 0 .1 7.5m1.9 10.6a3.1 3.1 0 0 0 .5-1.2c-.1-1.4-.1-2.9-.3-4.3s-.8-.1-1.2-.2a22 22 0 0 0-.4 3.6 2.4 2.4 0 0 0 1.4 2.1m.5-34.1a6.9 6.9 0 0 0 .5-1.3c-1.1 1-2.3 2-3.3 3.1s.3 1.1.5 1.6a9.9 9.9 0 0 0 2.3-3.4zM332.9 647.4c5.8 5.5 11.2 10.8 14.1 18.1a8.3 8.3 0 0 1-.5 6 5.1 5.1 0 0 1-7.1 2.6c-7.7-3.3-15.5-6.4-23.2-9.9-3.5-1.6-6.3-1.7-8.9 1.6-6.2 8.3-12.3 16.8-18.8 24.8-3.5 4.3-7.9 7.9-12 11.7-.5.5-2.2.6-2.5.2a3.2 3.2 0 0 1-.4-2.8c2.9-5.7 5.8-11.4 9.1-16.8 5-7.9 10.3-15.6 15.5-23.3 1.7-2.6.8-4.5-1.6-6.2a87.7 87.7 0 0 1-9-7.1c-4.3-4.1-1.3-8.4.7-12a9.2 9.2 0 0 1 11.6-4.5c3.6 1.3 7.6 2.5 10.4 4.9s5.7.7 7.7-1.6 5.5-7.1 8.5-10.4a6.5 6.5 0 0 1 9.8.3c2.8 3 .9 5.2-1.3 7.6a59.3 59.3 0 0 0-7.3 9.4c-.7 1.1 0 3.5.9 4.7s2.7 1.7 4.3 2.7zM417.6 340.1c4.8-3.2 9.5-6.1 14.2-9s7.4-.9 8.8 1.6 1.3 6.9.5 10.1-3.7 6.5-4.8 10a39 39 0 0 1-12.5 17.9l-27.2 22.4c-4.7 4-9.3 8-13.8 12.2-7.6 7.2-15.2 14.4-22.5 21.9a47.7 47.7 0 0 0-7.7 10.7c-12.8 23.2 27.3 17.2 36.9 15.1a146.1 146.1 0 0 1 51.9-2.1c20.5 2.9 36.3 11.3 46 29.9 5.9 11.6 10.8 24 12.8 36.9 5.3 34.8-11.9 63-43.6 75.3-15.4 6-31.8 8.5-48.2 9.7-21 1.6-32.5-6.9-47.9-19.7-6.3-5.2-7.9-12.3-8.9-19.9-.4-3.3-2.1-6.5-2.2-9.8a47.4 47.4 0 0 1 1.7-14.1 71.8 71.8 0 0 1 7.2-17.4c2.2-3.5 6.3-6 9.7-8.7s4.3-2.5 6.3-4 5.7-2.5 8.5.1l2.6 2.5c2.3 2.1 2.3 4.1.1 6.3-6.4 6.6-8.6 14.8-9.9 23.6-2.7 18.4 9.4 41.1 28.7 44.5 7.3 1.2 14.7 1.6 21.8-.3 8.7-2.2 17.2-4.5 25.7-8.8 3.8-1.9 8.2-4 11.4-6.9 7.1-6.4 8.7-18.5 10-27.5s.7-15.6 0-23.3c-1.2-13.7-11.6-37.4-23.1-45.3a39.6 39.6 0 0 0-11.8-5c-17-4.7-34.9-4.4-52.3-2.2s-33.4 9.5-49.6 2.1c-6.5-3-7.6-9.1-9.6-15s-.2-9 2.6-12.7a212.9 212.9 0 0 1 33.6-36.1l14.9-13.3c5.3-4.6 10.8-8.9 15.9-13.6a72.2 72.2 0 0 0 18.1-27.4c1.3-3.7 3.6-7 5.7-10.7m-61.1 226.9l1.8 2c.2-.8.7-1.7.5-2.4a16.6 16.6 0 0 0-1.2-3.1 18.3 18.3 0 0 0-1.1 3.5zM446.7 399.2c-.6 1.6-1.3 3.2-1.8 4.8l.8.3a35.4 35.4 0 0 0 1.9-3.9c.1-.3-.1-.8-.9-1.2zM442 412.7a7.1 7.1 0 0 1-.2 2l-1.4-.2z" fill="#fff"/></svg>