<?xml version="1.0" encoding="utf-8"?>
<!-- Generator: Adobe Illustrator 22.0.1, SVG Export Plug-In . SVG Version: 6.00 Build 0)  -->
<svg version="1.1" id="Layer_1" xmlns="http://www.w3.org/2000/svg" xmlns:xlink="http://www.w3.org/1999/xlink" x="0px" y="0px"
	 viewBox="0 0 256 256" style="enable-background:new 0 0 256 256;" xml:space="preserve">
<style type="text/css">
	.st0{fill:#FFFFFF;}
</style>
<rect y="0" width="256" height="256"/>
<path class="st0" d="M41.6,50.6h172.8c8.4,0,15.2,6.8,15.2,15.2l0,0c0,8.4-6.8,15.2-15.2,15.2H41.6c-8.4,0-15.2-6.8-15.2-15.2l0,0
	C26.4,57.4,33.2,50.6,41.6,50.6z M41.6,113.3h172.8c8.4,0,15.2,6.8,15.2,15.2l0,0c0,8.4-6.8,15.2-15.2,15.2H41.6
	c-8.4,0-15.2-6.8-15.2-15.2l0,0C26.4,120.1,33.2,113.3,41.6,113.3z M41.6,175.8h172.8c8.4,0,15.2,6.8,15.2,15.2l0,0
	c0,8.4-6.8,15.2-15.2,15.2H41.6c-8.4,0-15.2-6.8-15.2-15.2l0,0C26.4,182.7,33.2,175.8,41.6,175.8z"/>
</svg>
